%FSLAX23Y23*%
%MOIN*%
G70*
G01*
G75*
G04 Layer_Physical_Order=2*
G04 Layer_Color=16711680*
%ADD10R,0.050X0.300*%
%ADD11C,0.008*%
%ADD12C,0.015*%
%ADD13C,0.030*%
%ADD14C,0.065*%
G04:AMPARAMS|DCode=15|XSize=450mil|YSize=400mil|CornerRadius=20mil|HoleSize=0mil|Usage=FLASHONLY|Rotation=0.000|XOffset=0mil|YOffset=0mil|HoleType=Round|Shape=RoundedRectangle|*
%AMROUNDEDRECTD15*
21,1,0.450,0.360,0,0,0.0*
21,1,0.410,0.400,0,0,0.0*
1,1,0.040,0.205,-0.180*
1,1,0.040,-0.205,-0.180*
1,1,0.040,-0.205,0.180*
1,1,0.040,0.205,0.180*
%
%ADD15ROUNDEDRECTD15*%
%ADD16R,0.063X0.063*%
%ADD17C,0.063*%
%ADD18C,0.059*%
%ADD19R,0.059X0.059*%
%ADD20C,0.066*%
%ADD21C,0.188*%
%ADD22R,0.065X0.065*%
%ADD23O,0.050X0.100*%
%ADD24R,0.050X0.100*%
%ADD25C,0.032*%
%ADD26C,0.050*%
G36*
X6985Y2428D02*
X6980Y2427D01*
X6976Y2431D01*
X6970Y2436D01*
X6963Y2439D01*
X6955Y2440D01*
X6755D01*
Y2230D01*
Y2020D01*
X6955D01*
X6963Y2021D01*
X6970Y2024D01*
X6976Y2029D01*
X6980Y2033D01*
X6985Y2032D01*
Y1325D01*
X6979Y1319D01*
X6695D01*
Y1320D01*
X6665D01*
Y1160D01*
X6655D01*
Y1320D01*
X6625D01*
Y1319D01*
X6595D01*
Y1320D01*
X6525D01*
Y1319D01*
X6495D01*
Y1320D01*
X6425D01*
Y1319D01*
X6395D01*
Y1320D01*
X6325D01*
Y1319D01*
X6295D01*
Y1320D01*
X6225D01*
Y1319D01*
X6195D01*
Y1320D01*
X6125D01*
Y1319D01*
X6095D01*
Y1320D01*
X6025D01*
Y1319D01*
X5995D01*
Y1320D01*
X5925D01*
Y1319D01*
X5895D01*
Y1320D01*
X5825D01*
Y1319D01*
X5795D01*
Y1320D01*
X5725D01*
Y1319D01*
X5695D01*
Y1320D01*
X5625D01*
Y1319D01*
X5595D01*
Y1320D01*
X5525D01*
Y1319D01*
X5495D01*
Y1320D01*
X5425D01*
Y1319D01*
X5395D01*
Y1320D01*
X5325D01*
Y1319D01*
X5295D01*
Y1320D01*
X5274D01*
Y1745D01*
X5279Y1747D01*
X5282Y1744D01*
X5291Y1741D01*
X5300Y1740D01*
X5309Y1741D01*
X5318Y1744D01*
X5325Y1750D01*
X5331Y1757D01*
X5334Y1766D01*
X5335Y1775D01*
Y1825D01*
X5334Y1834D01*
X5331Y1843D01*
X5325Y1850D01*
X5318Y1856D01*
X5309Y1859D01*
X5300Y1860D01*
X5298Y1864D01*
X5321Y1887D01*
X6214D01*
X6217Y1882D01*
X6223Y1878D01*
X6229Y1876D01*
X6236Y1875D01*
X6243Y1876D01*
X6249Y1878D01*
X6255Y1882D01*
X6259Y1888D01*
X6261Y1894D01*
X6262Y1901D01*
X6261Y1908D01*
X6259Y1914D01*
X6255Y1920D01*
X6249Y1924D01*
X6243Y1926D01*
X6236Y1927D01*
X6234Y1931D01*
X6265Y1961D01*
X6270Y1961D01*
X6277Y1962D01*
X6281Y1963D01*
X6283Y1959D01*
X6281Y1958D01*
X6277Y1952D01*
X6275Y1946D01*
X6274Y1939D01*
X6275Y1932D01*
X6277Y1926D01*
X6281Y1920D01*
X6286Y1917D01*
Y1775D01*
X5970Y1459D01*
X5967Y1454D01*
X5966Y1449D01*
X5966Y1449D01*
Y1401D01*
X5961Y1398D01*
X5957Y1392D01*
X5955Y1386D01*
X5954Y1379D01*
X5955Y1372D01*
X5957Y1366D01*
X5961Y1360D01*
X5967Y1356D01*
X5973Y1354D01*
X5980Y1353D01*
X5987Y1354D01*
X5993Y1356D01*
X5999Y1360D01*
X6003Y1366D01*
X6005Y1372D01*
X6006Y1379D01*
X6005Y1386D01*
X6003Y1392D01*
X5999Y1398D01*
X5994Y1401D01*
Y1443D01*
X6152Y1601D01*
X6157Y1599D01*
X6159Y1589D01*
X6163Y1579D01*
X6170Y1570D01*
X6179Y1563D01*
X6189Y1559D01*
X6200Y1557D01*
X6211Y1559D01*
X6221Y1563D01*
X6230Y1570D01*
X6237Y1579D01*
X6241Y1589D01*
X6243Y1600D01*
X6241Y1611D01*
X6237Y1621D01*
X6230Y1630D01*
X6221Y1637D01*
X6211Y1641D01*
X6200Y1643D01*
X6198Y1647D01*
X6310Y1759D01*
X6310Y1759D01*
X6312Y1761D01*
X6313Y1763D01*
X6314Y1768D01*
X6319Y1770D01*
X6319Y1769D01*
X6328Y1762D01*
X6339Y1758D01*
X6350Y1757D01*
X6361Y1758D01*
X6372Y1762D01*
X6381Y1769D01*
X6388Y1778D01*
X6392Y1789D01*
X6393Y1800D01*
X6392Y1811D01*
X6388Y1822D01*
X6381Y1831D01*
X6372Y1838D01*
X6361Y1842D01*
X6350Y1843D01*
X6339Y1842D01*
X6328Y1838D01*
X6319Y1831D01*
X6319Y1830D01*
X6314Y1832D01*
Y1917D01*
X6319Y1920D01*
X6323Y1926D01*
X6325Y1932D01*
X6326Y1939D01*
X6325Y1946D01*
X6323Y1952D01*
X6319Y1958D01*
X6313Y1962D01*
X6307Y1964D01*
X6300Y1965D01*
X6293Y1964D01*
X6289Y1963D01*
X6287Y1967D01*
X6289Y1968D01*
X6293Y1974D01*
X6295Y1980D01*
X6296Y1987D01*
X6295Y1994D01*
X6293Y2000D01*
X6289Y2006D01*
X6283Y2010D01*
X6277Y2012D01*
X6270Y2013D01*
X6263Y2012D01*
X6257Y2010D01*
X6251Y2006D01*
X6247Y2000D01*
X6245Y1994D01*
X6244Y1987D01*
X6244Y1982D01*
X6213Y1950D01*
X5320D01*
X5320Y1950D01*
X5315Y1949D01*
X5310Y1946D01*
X5310Y1946D01*
X5150Y1786D01*
X5147Y1781D01*
X5146Y1776D01*
X5146Y1776D01*
Y1320D01*
X5125D01*
Y1319D01*
X5095D01*
Y1320D01*
X5074D01*
Y1461D01*
X5074Y1461D01*
X5073Y1466D01*
X5070Y1471D01*
X5070Y1471D01*
X4960Y1581D01*
X4955Y1584D01*
X4950Y1585D01*
X4950Y1585D01*
X4344D01*
X4263Y1666D01*
Y1759D01*
X4268Y1760D01*
X4269Y1757D01*
X4275Y1750D01*
X4282Y1744D01*
X4291Y1741D01*
X4300Y1740D01*
X4309Y1741D01*
X4318Y1744D01*
X4325Y1750D01*
X4331Y1757D01*
X4334Y1766D01*
X4335Y1775D01*
Y1825D01*
X4334Y1834D01*
X4331Y1843D01*
X4325Y1850D01*
X4318Y1856D01*
X4309Y1859D01*
X4300Y1860D01*
X4291Y1859D01*
X4282Y1856D01*
X4275Y1850D01*
X4269Y1843D01*
X4268Y1840D01*
X4263Y1841D01*
Y1874D01*
X4263Y1874D01*
X4262Y1879D01*
X4262D01*
D01*
D01*
X4262Y1879D01*
D01*
D01*
D01*
D01*
X4262Y1879D01*
D01*
D01*
Y1879D01*
D01*
X4262D01*
D01*
D01*
X4262D01*
D01*
D01*
X4259Y1884D01*
X4259Y1884D01*
X4214Y1929D01*
X4209Y1932D01*
X4204Y1933D01*
X4204Y1933D01*
X3320D01*
X3315Y1932D01*
X3313Y1931D01*
X3310Y1929D01*
X3310Y1929D01*
X3242Y1861D01*
X3239Y1856D01*
X3238Y1851D01*
X3238Y1851D01*
Y1838D01*
X3233Y1837D01*
X3231Y1843D01*
X3225Y1850D01*
X3218Y1856D01*
X3209Y1859D01*
X3200Y1860D01*
X3191Y1859D01*
X3182Y1856D01*
X3175Y1850D01*
X3169Y1843D01*
X3166Y1834D01*
X3165Y1825D01*
Y1775D01*
X3166Y1766D01*
X3169Y1757D01*
X3175Y1750D01*
X3182Y1744D01*
X3186Y1743D01*
Y1581D01*
X3186Y1581D01*
X3187Y1576D01*
X3190Y1571D01*
X3226Y1534D01*
X3225Y1530D01*
X3173D01*
X3114Y1589D01*
Y1743D01*
X3118Y1744D01*
X3125Y1750D01*
X3131Y1757D01*
X3134Y1766D01*
X3135Y1775D01*
Y1825D01*
X3134Y1834D01*
X3131Y1843D01*
X3125Y1850D01*
X3118Y1856D01*
X3109Y1859D01*
X3100Y1860D01*
X3091Y1859D01*
X3082Y1856D01*
X3075Y1850D01*
X3069Y1843D01*
X3066Y1834D01*
X3065Y1825D01*
Y1775D01*
X3066Y1766D01*
X3069Y1757D01*
X3075Y1750D01*
X3082Y1744D01*
X3086Y1743D01*
Y1583D01*
X3086Y1583D01*
X3087Y1578D01*
X3090Y1573D01*
X3146Y1516D01*
X3145Y1512D01*
X3053D01*
X3014Y1551D01*
Y1743D01*
X3018Y1744D01*
X3025Y1750D01*
X3031Y1757D01*
X3034Y1766D01*
X3035Y1775D01*
Y1825D01*
X3034Y1834D01*
X3031Y1843D01*
X3025Y1850D01*
X3018Y1856D01*
X3009Y1859D01*
X3000Y1860D01*
X2991Y1859D01*
X2982Y1856D01*
X2975Y1850D01*
X2969Y1843D01*
X2966Y1834D01*
X2965Y1825D01*
Y1775D01*
X2966Y1766D01*
X2969Y1757D01*
X2975Y1750D01*
X2982Y1744D01*
X2986Y1743D01*
Y1545D01*
X2986Y1545D01*
X2987Y1540D01*
X2990Y1535D01*
X3026Y1498D01*
X3025Y1494D01*
X2973D01*
X2914Y1553D01*
Y1743D01*
X2918Y1744D01*
X2925Y1750D01*
X2931Y1757D01*
X2934Y1766D01*
X2935Y1775D01*
Y1825D01*
X2934Y1834D01*
X2931Y1843D01*
X2925Y1850D01*
X2918Y1856D01*
X2909Y1859D01*
X2900Y1860D01*
X2891Y1859D01*
X2882Y1856D01*
X2875Y1850D01*
X2869Y1843D01*
X2866Y1834D01*
X2865Y1825D01*
Y1775D01*
X2866Y1766D01*
X2869Y1757D01*
X2875Y1750D01*
X2882Y1744D01*
X2886Y1743D01*
Y1547D01*
X2886Y1547D01*
X2887Y1542D01*
X2890Y1537D01*
X2946Y1480D01*
X2945Y1476D01*
X2853D01*
X2814Y1515D01*
Y1743D01*
X2818Y1744D01*
X2825Y1750D01*
X2831Y1757D01*
X2834Y1766D01*
X2835Y1775D01*
Y1825D01*
X2834Y1834D01*
X2831Y1843D01*
X2825Y1850D01*
X2818Y1856D01*
X2809Y1859D01*
X2800Y1860D01*
X2791Y1859D01*
X2782Y1856D01*
X2775Y1850D01*
X2769Y1843D01*
X2766Y1834D01*
X2765Y1825D01*
Y1775D01*
X2766Y1766D01*
X2769Y1757D01*
X2775Y1750D01*
X2782Y1744D01*
X2786Y1743D01*
Y1509D01*
X2786Y1509D01*
X2787Y1504D01*
X2790Y1499D01*
X2826Y1462D01*
X2825Y1458D01*
X2773D01*
X2714Y1517D01*
Y1743D01*
X2718Y1744D01*
X2725Y1750D01*
X2731Y1757D01*
X2734Y1766D01*
X2735Y1775D01*
Y1825D01*
X2734Y1834D01*
X2731Y1843D01*
X2725Y1850D01*
X2718Y1856D01*
X2709Y1859D01*
X2700Y1860D01*
X2691Y1859D01*
X2682Y1856D01*
X2675Y1850D01*
X2669Y1843D01*
X2666Y1834D01*
X2665Y1825D01*
Y1775D01*
X2666Y1766D01*
X2669Y1757D01*
X2675Y1750D01*
X2682Y1744D01*
X2686Y1743D01*
Y1511D01*
X2686Y1511D01*
X2687Y1506D01*
X2690Y1501D01*
X2757Y1433D01*
X2757Y1433D01*
X2760Y1432D01*
X2762Y1430D01*
X2767Y1429D01*
X2768Y1429D01*
X4314D01*
X4346Y1398D01*
Y1320D01*
X4325D01*
Y1319D01*
X4295D01*
Y1320D01*
X4225D01*
Y1319D01*
X2516D01*
X2515Y1320D01*
Y3485D01*
X6985D01*
Y2428D01*
D02*
G37*
%LPC*%
G36*
X4600Y2160D02*
X4591Y2159D01*
X4582Y2156D01*
X4575Y2150D01*
X4569Y2143D01*
X4566Y2134D01*
X4565Y2125D01*
Y2075D01*
X4566Y2066D01*
X4569Y2057D01*
X4575Y2050D01*
X4582Y2044D01*
X4591Y2041D01*
X4600Y2040D01*
X4609Y2041D01*
X4618Y2044D01*
X4625Y2050D01*
X4631Y2057D01*
X4634Y2066D01*
X4635Y2075D01*
Y2125D01*
X4634Y2134D01*
X4631Y2143D01*
X4625Y2150D01*
X4618Y2156D01*
X4609Y2159D01*
X4600Y2160D01*
D02*
G37*
G36*
X4500D02*
X4491Y2159D01*
X4482Y2156D01*
X4475Y2150D01*
X4469Y2143D01*
X4466Y2134D01*
X4465Y2125D01*
Y2075D01*
X4466Y2066D01*
X4469Y2057D01*
X4475Y2050D01*
X4482Y2044D01*
X4491Y2041D01*
X4500Y2040D01*
X4509Y2041D01*
X4518Y2044D01*
X4525Y2050D01*
X4531Y2057D01*
X4534Y2066D01*
X4535Y2075D01*
Y2125D01*
X4534Y2134D01*
X4531Y2143D01*
X4525Y2150D01*
X4518Y2156D01*
X4509Y2159D01*
X4500Y2160D01*
D02*
G37*
G36*
X4300D02*
X4291Y2159D01*
X4282Y2156D01*
X4275Y2150D01*
X4269Y2143D01*
X4266Y2134D01*
X4265Y2125D01*
Y2075D01*
X4266Y2066D01*
X4269Y2057D01*
X4275Y2050D01*
X4282Y2044D01*
X4291Y2041D01*
X4300Y2040D01*
X4309Y2041D01*
X4318Y2044D01*
X4325Y2050D01*
X4331Y2057D01*
X4334Y2066D01*
X4335Y2075D01*
Y2125D01*
X4334Y2134D01*
X4331Y2143D01*
X4325Y2150D01*
X4318Y2156D01*
X4309Y2159D01*
X4300Y2160D01*
D02*
G37*
G36*
X4400D02*
X4391Y2159D01*
X4382Y2156D01*
X4375Y2150D01*
X4369Y2143D01*
X4366Y2134D01*
X4365Y2125D01*
Y2075D01*
X4366Y2066D01*
X4369Y2057D01*
X4375Y2050D01*
X4382Y2044D01*
X4391Y2041D01*
X4400Y2040D01*
X4409Y2041D01*
X4418Y2044D01*
X4425Y2050D01*
X4431Y2057D01*
X4434Y2066D01*
X4435Y2075D01*
Y2125D01*
X4434Y2134D01*
X4431Y2143D01*
X4425Y2150D01*
X4418Y2156D01*
X4409Y2159D01*
X4400Y2160D01*
D02*
G37*
G36*
X4935Y2095D02*
X4905D01*
Y2040D01*
X4935D01*
Y2095D01*
D02*
G37*
G36*
X6235D02*
X6205D01*
Y2040D01*
X6235D01*
Y2095D01*
D02*
G37*
G36*
X4895D02*
X4865D01*
Y2040D01*
X4895D01*
Y2095D01*
D02*
G37*
G36*
X4700Y2160D02*
X4691Y2159D01*
X4682Y2156D01*
X4675Y2150D01*
X4669Y2143D01*
X4666Y2134D01*
X4665Y2125D01*
Y2075D01*
X4666Y2066D01*
X4669Y2057D01*
X4675Y2050D01*
X4682Y2044D01*
X4691Y2041D01*
X4700Y2040D01*
X4709Y2041D01*
X4718Y2044D01*
X4725Y2050D01*
X4731Y2057D01*
X4734Y2066D01*
X4735Y2075D01*
Y2125D01*
X4734Y2134D01*
X4731Y2143D01*
X4725Y2150D01*
X4718Y2156D01*
X4709Y2159D01*
X4700Y2160D01*
D02*
G37*
G36*
X4800D02*
X4791Y2159D01*
X4782Y2156D01*
X4775Y2150D01*
X4769Y2143D01*
X4766Y2134D01*
X4765Y2125D01*
Y2075D01*
X4766Y2066D01*
X4769Y2057D01*
X4775Y2050D01*
X4782Y2044D01*
X4791Y2041D01*
X4800Y2040D01*
X4809Y2041D01*
X4818Y2044D01*
X4825Y2050D01*
X4831Y2057D01*
X4834Y2066D01*
X4835Y2075D01*
Y2125D01*
X4834Y2134D01*
X4831Y2143D01*
X4825Y2150D01*
X4818Y2156D01*
X4809Y2159D01*
X4800Y2160D01*
D02*
G37*
G36*
X4200D02*
X4191Y2159D01*
X4182Y2156D01*
X4175Y2150D01*
X4169Y2143D01*
X4166Y2134D01*
X4165Y2125D01*
Y2075D01*
X4166Y2066D01*
X4169Y2057D01*
X4175Y2050D01*
X4182Y2044D01*
X4191Y2041D01*
X4200Y2040D01*
X4209Y2041D01*
X4218Y2044D01*
X4225Y2050D01*
X4231Y2057D01*
X4234Y2066D01*
X4235Y2075D01*
Y2125D01*
X4234Y2134D01*
X4231Y2143D01*
X4225Y2150D01*
X4218Y2156D01*
X4209Y2159D01*
X4200Y2160D01*
D02*
G37*
G36*
X3000D02*
X2991Y2159D01*
X2982Y2156D01*
X2975Y2150D01*
X2969Y2143D01*
X2966Y2134D01*
X2965Y2125D01*
Y2075D01*
X2966Y2066D01*
X2969Y2057D01*
X2975Y2050D01*
X2982Y2044D01*
X2991Y2041D01*
X3000Y2040D01*
X3009Y2041D01*
X3018Y2044D01*
X3025Y2050D01*
X3031Y2057D01*
X3034Y2066D01*
X3035Y2075D01*
Y2125D01*
X3034Y2134D01*
X3031Y2143D01*
X3025Y2150D01*
X3018Y2156D01*
X3009Y2159D01*
X3000Y2160D01*
D02*
G37*
G36*
X3100D02*
X3091Y2159D01*
X3082Y2156D01*
X3075Y2150D01*
X3069Y2143D01*
X3066Y2134D01*
X3065Y2125D01*
Y2075D01*
X3066Y2066D01*
X3069Y2057D01*
X3075Y2050D01*
X3082Y2044D01*
X3091Y2041D01*
X3100Y2040D01*
X3109Y2041D01*
X3118Y2044D01*
X3125Y2050D01*
X3131Y2057D01*
X3134Y2066D01*
X3135Y2075D01*
Y2125D01*
X3134Y2134D01*
X3131Y2143D01*
X3125Y2150D01*
X3118Y2156D01*
X3109Y2159D01*
X3100Y2160D01*
D02*
G37*
G36*
X2800D02*
X2791Y2159D01*
X2782Y2156D01*
X2775Y2150D01*
X2769Y2143D01*
X2766Y2134D01*
X2765Y2125D01*
Y2075D01*
X2766Y2066D01*
X2769Y2057D01*
X2775Y2050D01*
X2782Y2044D01*
X2791Y2041D01*
X2800Y2040D01*
X2809Y2041D01*
X2818Y2044D01*
X2825Y2050D01*
X2831Y2057D01*
X2834Y2066D01*
X2835Y2075D01*
Y2125D01*
X2834Y2134D01*
X2831Y2143D01*
X2825Y2150D01*
X2818Y2156D01*
X2809Y2159D01*
X2800Y2160D01*
D02*
G37*
G36*
X2900D02*
X2891Y2159D01*
X2882Y2156D01*
X2875Y2150D01*
X2869Y2143D01*
X2866Y2134D01*
X2865Y2125D01*
Y2075D01*
X2866Y2066D01*
X2869Y2057D01*
X2875Y2050D01*
X2882Y2044D01*
X2891Y2041D01*
X2900Y2040D01*
X2909Y2041D01*
X2918Y2044D01*
X2925Y2050D01*
X2931Y2057D01*
X2934Y2066D01*
X2935Y2075D01*
Y2125D01*
X2934Y2134D01*
X2931Y2143D01*
X2925Y2150D01*
X2918Y2156D01*
X2909Y2159D01*
X2900Y2160D01*
D02*
G37*
G36*
X3200D02*
X3191Y2159D01*
X3182Y2156D01*
X3175Y2150D01*
X3169Y2143D01*
X3166Y2134D01*
X3165Y2125D01*
Y2075D01*
X3166Y2066D01*
X3169Y2057D01*
X3175Y2050D01*
X3182Y2044D01*
X3191Y2041D01*
X3200Y2040D01*
X3209Y2041D01*
X3218Y2044D01*
X3225Y2050D01*
X3231Y2057D01*
X3234Y2066D01*
X3235Y2075D01*
Y2125D01*
X3234Y2134D01*
X3231Y2143D01*
X3225Y2150D01*
X3218Y2156D01*
X3209Y2159D01*
X3200Y2160D01*
D02*
G37*
G36*
X3500D02*
X3491Y2159D01*
X3482Y2156D01*
X3475Y2150D01*
X3469Y2143D01*
X3466Y2134D01*
X3465Y2125D01*
Y2075D01*
X3466Y2066D01*
X3469Y2057D01*
X3475Y2050D01*
X3482Y2044D01*
X3491Y2041D01*
X3500Y2040D01*
X3509Y2041D01*
X3518Y2044D01*
X3525Y2050D01*
X3531Y2057D01*
X3534Y2066D01*
X3535Y2075D01*
Y2125D01*
X3534Y2134D01*
X3531Y2143D01*
X3525Y2150D01*
X3518Y2156D01*
X3509Y2159D01*
X3500Y2160D01*
D02*
G37*
G36*
X4100D02*
X4091Y2159D01*
X4082Y2156D01*
X4075Y2150D01*
X4069Y2143D01*
X4066Y2134D01*
X4065Y2125D01*
Y2075D01*
X4066Y2066D01*
X4069Y2057D01*
X4075Y2050D01*
X4082Y2044D01*
X4091Y2041D01*
X4100Y2040D01*
X4109Y2041D01*
X4118Y2044D01*
X4125Y2050D01*
X4131Y2057D01*
X4134Y2066D01*
X4135Y2075D01*
Y2125D01*
X4134Y2134D01*
X4131Y2143D01*
X4125Y2150D01*
X4118Y2156D01*
X4109Y2159D01*
X4100Y2160D01*
D02*
G37*
G36*
X3300D02*
X3291Y2159D01*
X3282Y2156D01*
X3275Y2150D01*
X3269Y2143D01*
X3266Y2134D01*
X3265Y2125D01*
Y2075D01*
X3266Y2066D01*
X3269Y2057D01*
X3275Y2050D01*
X3282Y2044D01*
X3291Y2041D01*
X3300Y2040D01*
X3309Y2041D01*
X3318Y2044D01*
X3325Y2050D01*
X3331Y2057D01*
X3334Y2066D01*
X3335Y2075D01*
Y2125D01*
X3334Y2134D01*
X3331Y2143D01*
X3325Y2150D01*
X3318Y2156D01*
X3309Y2159D01*
X3300Y2160D01*
D02*
G37*
G36*
X3400D02*
X3391Y2159D01*
X3382Y2156D01*
X3375Y2150D01*
X3369Y2143D01*
X3366Y2134D01*
X3365Y2125D01*
Y2075D01*
X3366Y2066D01*
X3369Y2057D01*
X3375Y2050D01*
X3382Y2044D01*
X3391Y2041D01*
X3400Y2040D01*
X3409Y2041D01*
X3418Y2044D01*
X3425Y2050D01*
X3431Y2057D01*
X3434Y2066D01*
X3435Y2075D01*
Y2125D01*
X3434Y2134D01*
X3431Y2143D01*
X3425Y2150D01*
X3418Y2156D01*
X3409Y2159D01*
X3400Y2160D01*
D02*
G37*
G36*
X5295Y2160D02*
X5291Y2159D01*
X5282Y2156D01*
X5275Y2150D01*
X5269Y2143D01*
X5266Y2134D01*
X5265Y2125D01*
Y2105D01*
X5295D01*
Y2160D01*
D02*
G37*
G36*
X5305D02*
Y2105D01*
X5335D01*
Y2125D01*
X5334Y2134D01*
X5331Y2143D01*
X5325Y2150D01*
X5318Y2156D01*
X5309Y2159D01*
X5305Y2160D01*
D02*
G37*
G36*
X4895Y2160D02*
X4865D01*
Y2105D01*
X4895D01*
Y2160D01*
D02*
G37*
G36*
X4935D02*
X4905D01*
Y2105D01*
X4935D01*
Y2160D01*
D02*
G37*
G36*
X6195D02*
X6165D01*
Y2105D01*
X6195D01*
Y2160D01*
D02*
G37*
G36*
X2945Y2363D02*
X2846D01*
X2847Y2352D01*
X2851Y2336D01*
X2857Y2321D01*
X2866Y2307D01*
X2876Y2294D01*
X2889Y2284D01*
X2903Y2275D01*
X2918Y2269D01*
X2934Y2265D01*
X2945Y2264D01*
Y2363D01*
D02*
G37*
G36*
X3054D02*
X2955D01*
Y2264D01*
X2966Y2265D01*
X2982Y2269D01*
X2997Y2275D01*
X3011Y2284D01*
X3024Y2294D01*
X3034Y2307D01*
X3043Y2321D01*
X3049Y2336D01*
X3053Y2352D01*
X3054Y2363D01*
D02*
G37*
G36*
X6235Y2160D02*
X6205D01*
Y2105D01*
X6235D01*
Y2160D01*
D02*
G37*
G36*
X6745Y2440D02*
X6545D01*
X6537Y2439D01*
X6530Y2436D01*
X6524Y2431D01*
X6519Y2425D01*
X6516Y2418D01*
X6515Y2410D01*
Y2235D01*
X6745D01*
Y2440D01*
D02*
G37*
G36*
X4005Y2160D02*
Y2105D01*
X4035D01*
Y2125D01*
X4034Y2134D01*
X4031Y2143D01*
X4025Y2150D01*
X4018Y2156D01*
X4009Y2159D01*
X4005Y2160D01*
D02*
G37*
G36*
X3995Y2095D02*
X3965D01*
Y2075D01*
X3966Y2066D01*
X3969Y2057D01*
X3975Y2050D01*
X3982Y2044D01*
X3991Y2041D01*
X3995Y2040D01*
Y2095D01*
D02*
G37*
G36*
X4035D02*
X4005D01*
Y2040D01*
X4009Y2041D01*
X4018Y2044D01*
X4025Y2050D01*
X4031Y2057D01*
X4034Y2066D01*
X4035Y2075D01*
Y2095D01*
D02*
G37*
G36*
X2695D02*
X2665D01*
Y2075D01*
X2666Y2066D01*
X2669Y2057D01*
X2675Y2050D01*
X2682Y2044D01*
X2691Y2041D01*
X2695Y2040D01*
Y2095D01*
D02*
G37*
G36*
X2735D02*
X2705D01*
Y2040D01*
X2709Y2041D01*
X2718Y2044D01*
X2725Y2050D01*
X2731Y2057D01*
X2734Y2066D01*
X2735Y2075D01*
Y2095D01*
D02*
G37*
G36*
X5295D02*
X5265D01*
Y2075D01*
X5266Y2066D01*
X5269Y2057D01*
X5275Y2050D01*
X5282Y2044D01*
X5291Y2041D01*
X5295Y2040D01*
Y2095D01*
D02*
G37*
G36*
X2705Y2160D02*
Y2105D01*
X2735D01*
Y2125D01*
X2734Y2134D01*
X2731Y2143D01*
X2725Y2150D01*
X2718Y2156D01*
X2709Y2159D01*
X2705Y2160D01*
D02*
G37*
G36*
X3995D02*
X3991Y2159D01*
X3982Y2156D01*
X3975Y2150D01*
X3969Y2143D01*
X3966Y2134D01*
X3965Y2125D01*
Y2105D01*
X3995D01*
Y2160D01*
D02*
G37*
G36*
X5335Y2095D02*
X5305D01*
Y2040D01*
X5309Y2041D01*
X5318Y2044D01*
X5325Y2050D01*
X5331Y2057D01*
X5334Y2066D01*
X5335Y2075D01*
Y2095D01*
D02*
G37*
G36*
X2695Y2160D02*
X2691Y2159D01*
X2682Y2156D01*
X2675Y2150D01*
X2669Y2143D01*
X2666Y2134D01*
X2665Y2125D01*
Y2105D01*
X2695D01*
Y2160D01*
D02*
G37*
G36*
X4500Y1860D02*
X4491Y1859D01*
X4482Y1856D01*
X4475Y1850D01*
X4469Y1843D01*
X4466Y1834D01*
X4465Y1825D01*
Y1775D01*
X4466Y1766D01*
X4469Y1757D01*
X4475Y1750D01*
X4482Y1744D01*
X4491Y1741D01*
X4500Y1740D01*
X4509Y1741D01*
X4518Y1744D01*
X4525Y1750D01*
X4531Y1757D01*
X4534Y1766D01*
X4535Y1775D01*
Y1825D01*
X4534Y1834D01*
X4531Y1843D01*
X4525Y1850D01*
X4518Y1856D01*
X4509Y1859D01*
X4500Y1860D01*
D02*
G37*
G36*
X4600D02*
X4591Y1859D01*
X4582Y1856D01*
X4575Y1850D01*
X4569Y1843D01*
X4566Y1834D01*
X4565Y1825D01*
Y1775D01*
X4566Y1766D01*
X4569Y1757D01*
X4575Y1750D01*
X4582Y1744D01*
X4591Y1741D01*
X4600Y1740D01*
X4609Y1741D01*
X4618Y1744D01*
X4625Y1750D01*
X4631Y1757D01*
X4634Y1766D01*
X4635Y1775D01*
Y1825D01*
X4634Y1834D01*
X4631Y1843D01*
X4625Y1850D01*
X4618Y1856D01*
X4609Y1859D01*
X4600Y1860D01*
D02*
G37*
G36*
X6100D02*
X6091Y1859D01*
X6082Y1856D01*
X6075Y1850D01*
X6069Y1843D01*
X6066Y1834D01*
X6065Y1825D01*
Y1775D01*
X6066Y1766D01*
X6069Y1757D01*
X6075Y1750D01*
X6082Y1744D01*
X6086Y1743D01*
Y1695D01*
X6005Y1614D01*
X5840D01*
X5837Y1621D01*
X5830Y1630D01*
X5821Y1637D01*
X5811Y1641D01*
X5800Y1643D01*
X5789Y1641D01*
X5779Y1637D01*
X5770Y1630D01*
X5763Y1621D01*
X5759Y1611D01*
X5757Y1600D01*
X5759Y1589D01*
X5763Y1579D01*
X5770Y1570D01*
X5779Y1563D01*
X5789Y1559D01*
X5800Y1557D01*
X5811Y1559D01*
X5821Y1563D01*
X5830Y1570D01*
X5837Y1579D01*
X5840Y1586D01*
X6011D01*
X6011Y1586D01*
X6016Y1587D01*
X6021Y1590D01*
X6110Y1679D01*
X6110Y1679D01*
X6113Y1684D01*
D01*
D01*
D01*
Y1684D01*
X6113D01*
D01*
D01*
D01*
D01*
X6113D01*
D01*
D01*
D01*
D01*
Y1684D01*
X6113D01*
D01*
Y1684D01*
D01*
D01*
D01*
D01*
D01*
D01*
D01*
D01*
D01*
D01*
D01*
D01*
Y1684D01*
D01*
X6113D01*
D01*
D01*
D01*
D01*
X6113Y1684D01*
X6114Y1689D01*
X6114Y1689D01*
Y1743D01*
X6118Y1744D01*
X6125Y1750D01*
X6131Y1757D01*
X6134Y1766D01*
X6135Y1775D01*
Y1825D01*
X6134Y1834D01*
X6131Y1843D01*
X6125Y1850D01*
X6118Y1856D01*
X6109Y1859D01*
X6100Y1860D01*
D02*
G37*
G36*
X4400D02*
X4391Y1859D01*
X4382Y1856D01*
X4375Y1850D01*
X4369Y1843D01*
X4366Y1834D01*
X4365Y1825D01*
Y1775D01*
X4366Y1766D01*
X4369Y1757D01*
X4375Y1750D01*
X4382Y1744D01*
X4391Y1741D01*
X4400Y1740D01*
X4409Y1741D01*
X4418Y1744D01*
X4425Y1750D01*
X4431Y1757D01*
X4434Y1766D01*
X4435Y1775D01*
Y1825D01*
X4434Y1834D01*
X4431Y1843D01*
X4425Y1850D01*
X4418Y1856D01*
X4409Y1859D01*
X4400Y1860D01*
D02*
G37*
G36*
X4700D02*
X4691Y1859D01*
X4682Y1856D01*
X4675Y1850D01*
X4669Y1843D01*
X4666Y1834D01*
X4665Y1825D01*
Y1775D01*
X4666Y1766D01*
X4669Y1757D01*
X4675Y1750D01*
X4682Y1744D01*
X4691Y1741D01*
X4700Y1740D01*
X4709Y1741D01*
X4718Y1744D01*
X4725Y1750D01*
X4731Y1757D01*
X4734Y1766D01*
X4735Y1775D01*
Y1825D01*
X4734Y1834D01*
X4731Y1843D01*
X4725Y1850D01*
X4718Y1856D01*
X4709Y1859D01*
X4700Y1860D01*
D02*
G37*
G36*
X5500D02*
X5491Y1859D01*
X5482Y1856D01*
X5475Y1850D01*
X5469Y1843D01*
X5466Y1834D01*
X5465Y1825D01*
Y1775D01*
X5466Y1766D01*
X5469Y1757D01*
X5475Y1750D01*
X5482Y1744D01*
X5491Y1741D01*
X5500Y1740D01*
X5509Y1741D01*
X5518Y1744D01*
X5525Y1750D01*
X5531Y1757D01*
X5534Y1766D01*
X5535Y1775D01*
Y1825D01*
X5534Y1834D01*
X5531Y1843D01*
X5525Y1850D01*
X5518Y1856D01*
X5509Y1859D01*
X5500Y1860D01*
D02*
G37*
G36*
X5600D02*
X5591Y1859D01*
X5582Y1856D01*
X5575Y1850D01*
X5569Y1843D01*
X5566Y1834D01*
X5565Y1825D01*
Y1775D01*
X5566Y1766D01*
X5569Y1757D01*
X5575Y1750D01*
X5582Y1744D01*
X5591Y1741D01*
X5600Y1740D01*
X5609Y1741D01*
X5618Y1744D01*
X5625Y1750D01*
X5631Y1757D01*
X5634Y1766D01*
X5635Y1775D01*
Y1825D01*
X5634Y1834D01*
X5631Y1843D01*
X5625Y1850D01*
X5618Y1856D01*
X5609Y1859D01*
X5600Y1860D01*
D02*
G37*
G36*
X4900D02*
X4891Y1859D01*
X4882Y1856D01*
X4875Y1850D01*
X4869Y1843D01*
X4866Y1834D01*
X4865Y1825D01*
Y1775D01*
X4866Y1766D01*
X4869Y1757D01*
X4875Y1750D01*
X4882Y1744D01*
X4891Y1741D01*
X4900Y1740D01*
X4909Y1741D01*
X4918Y1744D01*
X4925Y1750D01*
X4931Y1757D01*
X4934Y1766D01*
X4935Y1775D01*
Y1825D01*
X4934Y1834D01*
X4931Y1843D01*
X4925Y1850D01*
X4918Y1856D01*
X4909Y1859D01*
X4900Y1860D01*
D02*
G37*
G36*
X5400D02*
X5391Y1859D01*
X5382Y1856D01*
X5375Y1850D01*
X5369Y1843D01*
X5366Y1834D01*
X5365Y1825D01*
Y1775D01*
X5366Y1766D01*
X5369Y1757D01*
X5375Y1750D01*
X5382Y1744D01*
X5391Y1741D01*
X5400Y1740D01*
X5409Y1741D01*
X5418Y1744D01*
X5425Y1750D01*
X5431Y1757D01*
X5434Y1766D01*
X5435Y1775D01*
Y1825D01*
X5434Y1834D01*
X5431Y1843D01*
X5425Y1850D01*
X5418Y1856D01*
X5409Y1859D01*
X5400Y1860D01*
D02*
G37*
G36*
X5050Y1743D02*
X5039Y1741D01*
X5029Y1737D01*
X5020Y1730D01*
X5013Y1721D01*
X5009Y1711D01*
X5007Y1700D01*
X5009Y1689D01*
X5013Y1679D01*
X5020Y1670D01*
X5029Y1663D01*
X5039Y1659D01*
X5050Y1657D01*
X5061Y1659D01*
X5071Y1663D01*
X5080Y1670D01*
X5087Y1679D01*
X5091Y1689D01*
X5093Y1700D01*
X5091Y1711D01*
X5087Y1721D01*
X5080Y1730D01*
X5071Y1737D01*
X5061Y1741D01*
X5050Y1743D01*
D02*
G37*
G36*
X6745Y1545D02*
X6709D01*
X6710Y1539D01*
X6714Y1529D01*
X6720Y1520D01*
X6729Y1514D01*
X6739Y1510D01*
X6745Y1509D01*
Y1545D01*
D02*
G37*
G36*
X6791D02*
X6755D01*
Y1509D01*
X6761Y1510D01*
X6771Y1514D01*
X6780Y1520D01*
X6786Y1529D01*
X6790Y1539D01*
X6791Y1545D01*
D02*
G37*
G36*
X6850Y1592D02*
X6839Y1590D01*
X6829Y1586D01*
X6820Y1580D01*
X6814Y1571D01*
X6810Y1561D01*
X6808Y1550D01*
X6810Y1539D01*
X6814Y1529D01*
X6820Y1520D01*
X6829Y1514D01*
X6839Y1510D01*
X6850Y1508D01*
X6861Y1510D01*
X6871Y1514D01*
X6880Y1520D01*
X6886Y1529D01*
X6890Y1539D01*
X6892Y1550D01*
X6890Y1561D01*
X6886Y1571D01*
X6880Y1580D01*
X6871Y1586D01*
X6861Y1590D01*
X6850Y1592D01*
D02*
G37*
G36*
X6691Y1591D02*
X6609D01*
Y1509D01*
X6691D01*
Y1591D01*
D02*
G37*
G36*
X6745Y1591D02*
X6739Y1590D01*
X6729Y1586D01*
X6720Y1580D01*
X6714Y1571D01*
X6710Y1561D01*
X6709Y1555D01*
X6745D01*
Y1591D01*
D02*
G37*
G36*
X6468Y1595D02*
X6434D01*
Y1561D01*
X6439Y1561D01*
X6449Y1565D01*
X6457Y1572D01*
X6463Y1580D01*
X6467Y1590D01*
X6468Y1595D01*
D02*
G37*
G36*
X6434Y1639D02*
Y1605D01*
X6468D01*
X6467Y1610D01*
X6463Y1620D01*
X6457Y1628D01*
X6449Y1635D01*
X6439Y1639D01*
X6434Y1639D01*
D02*
G37*
G36*
X6755Y1591D02*
Y1555D01*
X6791D01*
X6790Y1561D01*
X6786Y1571D01*
X6780Y1580D01*
X6771Y1586D01*
X6761Y1590D01*
X6755Y1591D01*
D02*
G37*
G36*
X6390Y1640D02*
X6310D01*
Y1560D01*
X6390D01*
Y1578D01*
X6393Y1580D01*
X6394Y1580D01*
X6401Y1572D01*
X6409Y1565D01*
X6418Y1561D01*
X6424Y1561D01*
Y1600D01*
Y1639D01*
X6418Y1639D01*
X6409Y1635D01*
X6401Y1628D01*
X6394Y1620D01*
X6393Y1620D01*
X6390Y1622D01*
Y1640D01*
D02*
G37*
G36*
X5700Y1860D02*
X5691Y1859D01*
X5682Y1856D01*
X5675Y1850D01*
X5669Y1843D01*
X5666Y1834D01*
X5665Y1825D01*
Y1775D01*
X5666Y1766D01*
X5669Y1757D01*
X5675Y1750D01*
X5682Y1744D01*
X5691Y1741D01*
X5700Y1740D01*
X5709Y1741D01*
X5718Y1744D01*
X5725Y1750D01*
X5731Y1757D01*
X5734Y1766D01*
X5735Y1775D01*
Y1825D01*
X5734Y1834D01*
X5731Y1843D01*
X5725Y1850D01*
X5718Y1856D01*
X5709Y1859D01*
X5700Y1860D01*
D02*
G37*
G36*
X3755Y2043D02*
Y2005D01*
X3793D01*
X3792Y2011D01*
X3788Y2022D01*
X3781Y2031D01*
X3772Y2038D01*
X3761Y2042D01*
X3755Y2043D01*
D02*
G37*
G36*
X5045D02*
X5039Y2042D01*
X5028Y2038D01*
X5019Y2031D01*
X5012Y2022D01*
X5008Y2011D01*
X5007Y2005D01*
X5045D01*
Y2043D01*
D02*
G37*
G36*
X6393Y1995D02*
X6355D01*
Y1957D01*
X6361Y1958D01*
X6372Y1962D01*
X6381Y1969D01*
X6388Y1978D01*
X6392Y1989D01*
X6393Y1995D01*
D02*
G37*
G36*
X3745Y2043D02*
X3739Y2042D01*
X3728Y2038D01*
X3719Y2031D01*
X3712Y2022D01*
X3708Y2011D01*
X3707Y2005D01*
X3745D01*
Y2043D01*
D02*
G37*
G36*
X5055D02*
Y2005D01*
X5093D01*
X5092Y2011D01*
X5088Y2022D01*
X5081Y2031D01*
X5072Y2038D01*
X5061Y2042D01*
X5055Y2043D01*
D02*
G37*
G36*
X6745Y2225D02*
X6515D01*
Y2050D01*
X6516Y2042D01*
X6519Y2035D01*
X6524Y2029D01*
X6530Y2024D01*
X6537Y2021D01*
X6545Y2020D01*
X6745D01*
Y2225D01*
D02*
G37*
G36*
X6100Y2160D02*
X6091Y2159D01*
X6082Y2156D01*
X6075Y2150D01*
X6069Y2143D01*
X6066Y2134D01*
X6065Y2125D01*
Y2075D01*
X6066Y2066D01*
X6069Y2057D01*
X6075Y2050D01*
X6082Y2044D01*
X6085Y2043D01*
X6084Y2038D01*
X6016D01*
X6015Y2043D01*
X6018Y2044D01*
X6025Y2050D01*
X6031Y2057D01*
X6034Y2066D01*
X6035Y2075D01*
Y2125D01*
X6034Y2134D01*
X6031Y2143D01*
X6025Y2150D01*
X6018Y2156D01*
X6009Y2159D01*
X6000Y2160D01*
X5991Y2159D01*
X5982Y2156D01*
X5975Y2150D01*
X5969Y2143D01*
X5966Y2134D01*
X5965Y2125D01*
Y2075D01*
X5966Y2066D01*
X5969Y2057D01*
X5975Y2050D01*
X5982Y2044D01*
X5985Y2043D01*
X5984Y2038D01*
X5916D01*
X5915Y2043D01*
X5918Y2044D01*
X5925Y2050D01*
X5931Y2057D01*
X5934Y2066D01*
X5935Y2075D01*
Y2125D01*
X5934Y2134D01*
X5931Y2143D01*
X5925Y2150D01*
X5918Y2156D01*
X5909Y2159D01*
X5900Y2160D01*
X5891Y2159D01*
X5882Y2156D01*
X5875Y2150D01*
X5869Y2143D01*
X5866Y2134D01*
X5865Y2125D01*
Y2075D01*
X5866Y2066D01*
X5869Y2057D01*
X5875Y2050D01*
X5882Y2044D01*
X5885Y2043D01*
X5884Y2038D01*
X5816D01*
X5815Y2043D01*
X5818Y2044D01*
X5825Y2050D01*
X5831Y2057D01*
X5834Y2066D01*
X5835Y2075D01*
Y2125D01*
X5834Y2134D01*
X5831Y2143D01*
X5825Y2150D01*
X5818Y2156D01*
X5809Y2159D01*
X5800Y2160D01*
X5791Y2159D01*
X5782Y2156D01*
X5775Y2150D01*
X5769Y2143D01*
X5766Y2134D01*
X5765Y2125D01*
Y2075D01*
X5766Y2066D01*
X5769Y2057D01*
X5775Y2050D01*
X5782Y2044D01*
X5785Y2043D01*
X5784Y2038D01*
X5716D01*
X5715Y2043D01*
X5718Y2044D01*
X5725Y2050D01*
X5731Y2057D01*
X5734Y2066D01*
X5735Y2075D01*
Y2125D01*
X5734Y2134D01*
X5731Y2143D01*
X5725Y2150D01*
X5718Y2156D01*
X5709Y2159D01*
X5700Y2160D01*
X5691Y2159D01*
X5682Y2156D01*
X5675Y2150D01*
X5669Y2143D01*
X5666Y2134D01*
X5665Y2125D01*
Y2075D01*
X5666Y2066D01*
X5669Y2057D01*
X5675Y2050D01*
X5682Y2044D01*
X5685Y2043D01*
X5684Y2038D01*
X5616D01*
X5615Y2043D01*
X5618Y2044D01*
X5625Y2050D01*
X5631Y2057D01*
X5634Y2066D01*
X5635Y2075D01*
Y2125D01*
X5634Y2134D01*
X5631Y2143D01*
X5625Y2150D01*
X5618Y2156D01*
X5609Y2159D01*
X5600Y2160D01*
X5591Y2159D01*
X5582Y2156D01*
X5575Y2150D01*
X5569Y2143D01*
X5566Y2134D01*
X5565Y2125D01*
Y2075D01*
X5566Y2066D01*
X5569Y2057D01*
X5575Y2050D01*
X5582Y2044D01*
X5585Y2043D01*
X5584Y2038D01*
X5516D01*
X5515Y2043D01*
X5518Y2044D01*
X5525Y2050D01*
X5531Y2057D01*
X5534Y2066D01*
X5535Y2075D01*
Y2125D01*
X5534Y2134D01*
X5531Y2143D01*
X5525Y2150D01*
X5518Y2156D01*
X5509Y2159D01*
X5500Y2160D01*
X5491Y2159D01*
X5482Y2156D01*
X5475Y2150D01*
X5469Y2143D01*
X5466Y2134D01*
X5465Y2125D01*
Y2075D01*
X5466Y2066D01*
X5469Y2057D01*
X5475Y2050D01*
X5482Y2044D01*
X5485Y2043D01*
X5484Y2038D01*
X5416D01*
X5415Y2043D01*
X5418Y2044D01*
X5425Y2050D01*
X5431Y2057D01*
X5434Y2066D01*
X5435Y2075D01*
Y2125D01*
X5434Y2134D01*
X5431Y2143D01*
X5425Y2150D01*
X5418Y2156D01*
X5409Y2159D01*
X5400Y2160D01*
X5391Y2159D01*
X5382Y2156D01*
X5375Y2150D01*
X5369Y2143D01*
X5366Y2134D01*
X5365Y2125D01*
Y2075D01*
X5366Y2066D01*
X5369Y2057D01*
X5375Y2050D01*
X5382Y2044D01*
X5385Y2043D01*
X5384Y2038D01*
X5339D01*
X5339Y2038D01*
X5333Y2037D01*
X5328Y2034D01*
X5328Y2034D01*
X5209Y1914D01*
X4840D01*
X4835Y1913D01*
X4833Y1912D01*
X4830Y1910D01*
X4830Y1910D01*
X4790Y1870D01*
X4787Y1865D01*
X4786Y1860D01*
X4786Y1860D01*
Y1857D01*
X4782Y1856D01*
X4775Y1850D01*
X4769Y1843D01*
X4766Y1834D01*
X4765Y1825D01*
Y1775D01*
X4766Y1766D01*
X4769Y1757D01*
X4775Y1750D01*
X4780Y1746D01*
X4781Y1741D01*
X4754Y1714D01*
X4690D01*
X4687Y1721D01*
X4680Y1730D01*
X4671Y1737D01*
X4661Y1741D01*
X4650Y1743D01*
X4639Y1741D01*
X4629Y1737D01*
X4620Y1730D01*
X4613Y1721D01*
X4609Y1711D01*
X4607Y1700D01*
X4609Y1689D01*
X4613Y1679D01*
X4620Y1670D01*
X4629Y1663D01*
X4639Y1659D01*
X4650Y1657D01*
X4661Y1659D01*
X4671Y1663D01*
X4680Y1670D01*
X4687Y1679D01*
X4690Y1686D01*
X4760D01*
X4760Y1686D01*
X4765Y1687D01*
X4770Y1690D01*
X4810Y1730D01*
X4810Y1730D01*
X4812Y1733D01*
X4813Y1735D01*
X4814Y1740D01*
D01*
D01*
D01*
D01*
D01*
D01*
X4814D01*
D01*
D01*
D01*
Y1740D01*
X4814Y1740D01*
D01*
D01*
D01*
D01*
D01*
D01*
D01*
D01*
D01*
D01*
D01*
Y1740D01*
X4814Y1743D01*
X4818Y1744D01*
X4825Y1750D01*
X4831Y1757D01*
X4834Y1766D01*
X4835Y1775D01*
Y1825D01*
X4834Y1834D01*
X4831Y1843D01*
X4825Y1850D01*
X4818Y1856D01*
X4817Y1857D01*
X4846Y1886D01*
X5215D01*
X5215Y1886D01*
X5220Y1887D01*
X5225Y1890D01*
X5344Y2010D01*
X6128D01*
X6131Y2005D01*
X6137Y2001D01*
X6143Y1999D01*
X6150Y1998D01*
X6157Y1999D01*
X6163Y2001D01*
X6169Y2005D01*
X6173Y2011D01*
X6175Y2017D01*
X6176Y2024D01*
X6175Y2031D01*
X6173Y2037D01*
X6174Y2040D01*
X6195D01*
Y2095D01*
X6165D01*
Y2050D01*
X6161Y2048D01*
X6157Y2049D01*
X6150Y2050D01*
X6143Y2049D01*
X6137Y2047D01*
X6131Y2043D01*
X6128Y2038D01*
X6116D01*
X6115Y2043D01*
X6118Y2044D01*
X6125Y2050D01*
X6131Y2057D01*
X6134Y2066D01*
X6135Y2075D01*
Y2125D01*
X6134Y2134D01*
X6131Y2143D01*
X6125Y2150D01*
X6118Y2156D01*
X6109Y2159D01*
X6100Y2160D01*
D02*
G37*
G36*
X6345Y2043D02*
X6339Y2042D01*
X6328Y2038D01*
X6319Y2031D01*
X6312Y2022D01*
X6308Y2011D01*
X6307Y2005D01*
X6345D01*
Y2043D01*
D02*
G37*
G36*
X6355D02*
Y2005D01*
X6393D01*
X6392Y2011D01*
X6388Y2022D01*
X6381Y2031D01*
X6372Y2038D01*
X6361Y2042D01*
X6355Y2043D01*
D02*
G37*
G36*
X6345Y1995D02*
X6307D01*
X6308Y1989D01*
X6312Y1978D01*
X6319Y1969D01*
X6328Y1962D01*
X6339Y1958D01*
X6345Y1957D01*
Y1995D01*
D02*
G37*
G36*
X6000Y1860D02*
X5991Y1859D01*
X5982Y1856D01*
X5975Y1850D01*
X5969Y1843D01*
X5966Y1834D01*
X5965Y1825D01*
Y1775D01*
X5966Y1766D01*
X5969Y1757D01*
X5975Y1750D01*
X5982Y1744D01*
X5991Y1741D01*
X6000Y1740D01*
X6009Y1741D01*
X6018Y1744D01*
X6025Y1750D01*
X6031Y1757D01*
X6034Y1766D01*
X6035Y1775D01*
Y1825D01*
X6034Y1834D01*
X6031Y1843D01*
X6025Y1850D01*
X6018Y1856D01*
X6009Y1859D01*
X6000Y1860D01*
D02*
G37*
G36*
X6200D02*
X6191Y1859D01*
X6182Y1856D01*
X6175Y1850D01*
X6169Y1843D01*
X6166Y1834D01*
X6165Y1825D01*
Y1775D01*
X6166Y1766D01*
X6169Y1757D01*
X6175Y1750D01*
X6182Y1744D01*
X6191Y1741D01*
X6200Y1740D01*
X6209Y1741D01*
X6218Y1744D01*
X6225Y1750D01*
X6231Y1757D01*
X6234Y1766D01*
X6235Y1775D01*
Y1825D01*
X6234Y1834D01*
X6231Y1843D01*
X6225Y1850D01*
X6218Y1856D01*
X6209Y1859D01*
X6200Y1860D01*
D02*
G37*
G36*
X5800D02*
X5791Y1859D01*
X5782Y1856D01*
X5775Y1850D01*
X5769Y1843D01*
X5766Y1834D01*
X5765Y1825D01*
Y1775D01*
X5766Y1766D01*
X5769Y1757D01*
X5775Y1750D01*
X5782Y1744D01*
X5791Y1741D01*
X5800Y1740D01*
X5809Y1741D01*
X5818Y1744D01*
X5825Y1750D01*
X5831Y1757D01*
X5834Y1766D01*
X5835Y1775D01*
Y1825D01*
X5834Y1834D01*
X5831Y1843D01*
X5825Y1850D01*
X5818Y1856D01*
X5809Y1859D01*
X5800Y1860D01*
D02*
G37*
G36*
X5900D02*
X5891Y1859D01*
X5882Y1856D01*
X5875Y1850D01*
X5869Y1843D01*
X5866Y1834D01*
X5865Y1825D01*
Y1775D01*
X5866Y1766D01*
X5869Y1757D01*
X5875Y1750D01*
X5882Y1744D01*
X5891Y1741D01*
X5900Y1740D01*
X5909Y1741D01*
X5918Y1744D01*
X5925Y1750D01*
X5931Y1757D01*
X5934Y1766D01*
X5935Y1775D01*
Y1825D01*
X5934Y1834D01*
X5931Y1843D01*
X5925Y1850D01*
X5918Y1856D01*
X5909Y1859D01*
X5900Y1860D01*
D02*
G37*
G36*
X5050Y1843D02*
X5039Y1842D01*
X5028Y1838D01*
X5019Y1831D01*
X5012Y1822D01*
X5008Y1811D01*
X5007Y1800D01*
X5008Y1789D01*
X5012Y1778D01*
X5019Y1769D01*
X5028Y1762D01*
X5039Y1758D01*
X5050Y1757D01*
X5061Y1758D01*
X5072Y1762D01*
X5081Y1769D01*
X5088Y1778D01*
X5092Y1789D01*
X5093Y1800D01*
X5092Y1811D01*
X5088Y1822D01*
X5081Y1831D01*
X5072Y1838D01*
X5061Y1842D01*
X5050Y1843D01*
D02*
G37*
G36*
X5045Y1995D02*
X5007D01*
X5008Y1989D01*
X5012Y1978D01*
X5019Y1969D01*
X5028Y1962D01*
X5039Y1958D01*
X5045Y1957D01*
Y1995D01*
D02*
G37*
G36*
X5093D02*
X5055D01*
Y1957D01*
X5061Y1958D01*
X5072Y1962D01*
X5081Y1969D01*
X5088Y1978D01*
X5092Y1989D01*
X5093Y1995D01*
D02*
G37*
G36*
X3745D02*
X3707D01*
X3708Y1989D01*
X3712Y1978D01*
X3719Y1969D01*
X3728Y1962D01*
X3739Y1958D01*
X3745Y1957D01*
Y1995D01*
D02*
G37*
G36*
X3793D02*
X3755D01*
Y1957D01*
X3761Y1958D01*
X3772Y1962D01*
X3781Y1969D01*
X3788Y1978D01*
X3792Y1989D01*
X3793Y1995D01*
D02*
G37*
G36*
X3350Y2393D02*
X3339Y2391D01*
X3329Y2387D01*
X3320Y2380D01*
X3313Y2371D01*
X3309Y2361D01*
X3307Y2350D01*
X3309Y2339D01*
X3313Y2329D01*
X3320Y2320D01*
X3329Y2313D01*
X3339Y2309D01*
X3350Y2307D01*
X3361Y2309D01*
X3371Y2313D01*
X3380Y2320D01*
X3387Y2329D01*
X3391Y2339D01*
X3393Y2350D01*
X3391Y2361D01*
X3387Y2371D01*
X3380Y2380D01*
X3371Y2387D01*
X3361Y2391D01*
X3350Y2393D01*
D02*
G37*
G36*
X3750Y2993D02*
X3739Y2991D01*
X3729Y2987D01*
X3720Y2980D01*
X3713Y2971D01*
X3709Y2961D01*
X3707Y2950D01*
X3709Y2939D01*
X3713Y2929D01*
X3720Y2920D01*
X3729Y2913D01*
X3739Y2909D01*
X3750Y2907D01*
X3761Y2909D01*
X3771Y2913D01*
X3780Y2920D01*
X3787Y2929D01*
X3791Y2939D01*
X3793Y2950D01*
X3791Y2961D01*
X3787Y2971D01*
X3780Y2980D01*
X3771Y2987D01*
X3761Y2991D01*
X3750Y2993D01*
D02*
G37*
G36*
X2992Y3000D02*
X2955D01*
Y2963D01*
X2961Y2964D01*
X2971Y2968D01*
X2980Y2975D01*
X2987Y2984D01*
X2991Y2994D01*
X2992Y3000D01*
D02*
G37*
G36*
X2947Y2962D02*
Y2957D01*
X2939Y2956D01*
X2929Y2952D01*
X2920Y2945D01*
X2913Y2936D01*
X2909Y2926D01*
X2907Y2915D01*
X2909Y2904D01*
X2913Y2894D01*
X2920Y2885D01*
X2929Y2878D01*
X2939Y2874D01*
X2947Y2872D01*
Y2868D01*
X2950Y2868D01*
X2953Y2868D01*
Y2872D01*
X2961Y2874D01*
X2971Y2878D01*
X2980Y2885D01*
X2987Y2894D01*
X2991Y2904D01*
X2993Y2915D01*
X2991Y2926D01*
X2987Y2936D01*
X2980Y2945D01*
X2971Y2952D01*
X2961Y2956D01*
X2953Y2957D01*
Y2962D01*
X2950Y2962D01*
X2947Y2962D01*
D02*
G37*
G36*
X3350Y2993D02*
X3339Y2991D01*
X3329Y2987D01*
X3320Y2980D01*
X3313Y2971D01*
X3309Y2961D01*
X3307Y2950D01*
X3309Y2939D01*
X3313Y2929D01*
X3320Y2920D01*
X3329Y2913D01*
X3339Y2909D01*
X3350Y2907D01*
X3361Y2909D01*
X3371Y2913D01*
X3380Y2920D01*
X3387Y2929D01*
X3391Y2939D01*
X3393Y2950D01*
X3391Y2961D01*
X3387Y2971D01*
X3380Y2980D01*
X3371Y2987D01*
X3361Y2991D01*
X3350Y2993D01*
D02*
G37*
G36*
X2945Y3000D02*
X2908D01*
X2909Y2994D01*
X2913Y2984D01*
X2920Y2975D01*
X2929Y2968D01*
X2939Y2964D01*
X2945Y2963D01*
Y3000D01*
D02*
G37*
G36*
X3045Y3045D02*
X3008D01*
X3009Y3039D01*
X3013Y3029D01*
X3020Y3020D01*
X3029Y3013D01*
X3039Y3009D01*
X3045Y3008D01*
Y3045D01*
D02*
G37*
G36*
X2945Y3047D02*
X2939Y3046D01*
X2929Y3042D01*
X2920Y3035D01*
X2913Y3026D01*
X2909Y3016D01*
X2908Y3010D01*
X2945D01*
Y3047D01*
D02*
G37*
G36*
X3350Y3093D02*
X3339Y3091D01*
X3329Y3087D01*
X3320Y3080D01*
X3313Y3071D01*
X3309Y3061D01*
X3307Y3050D01*
X3309Y3039D01*
X3313Y3029D01*
X3320Y3020D01*
X3329Y3013D01*
X3339Y3009D01*
X3350Y3007D01*
X3361Y3009D01*
X3371Y3013D01*
X3380Y3020D01*
X3387Y3029D01*
X3391Y3039D01*
X3393Y3050D01*
X3391Y3061D01*
X3387Y3071D01*
X3380Y3080D01*
X3371Y3087D01*
X3361Y3091D01*
X3350Y3093D01*
D02*
G37*
G36*
X3092Y3045D02*
X3055D01*
Y3008D01*
X3061Y3009D01*
X3071Y3013D01*
X3080Y3020D01*
X3087Y3029D01*
X3091Y3039D01*
X3092Y3045D01*
D02*
G37*
G36*
X2955Y2867D02*
Y2830D01*
X2992D01*
X2991Y2836D01*
X2987Y2846D01*
X2980Y2855D01*
X2971Y2862D01*
X2961Y2866D01*
X2955Y2867D01*
D02*
G37*
G36*
Y2777D02*
Y2740D01*
X2992D01*
X2991Y2746D01*
X2987Y2756D01*
X2980Y2765D01*
X2971Y2772D01*
X2961Y2776D01*
X2955Y2777D01*
D02*
G37*
G36*
X2947Y2782D02*
Y2778D01*
X2950Y2778D01*
X2953Y2778D01*
Y2782D01*
X2950Y2782D01*
X2947Y2782D01*
D02*
G37*
G36*
X3750Y2793D02*
X3739Y2791D01*
X3729Y2787D01*
X3720Y2780D01*
X3713Y2771D01*
X3709Y2761D01*
X3707Y2750D01*
X3709Y2739D01*
X3713Y2729D01*
X3720Y2720D01*
X3729Y2713D01*
X3739Y2709D01*
X3750Y2707D01*
X3761Y2709D01*
X3771Y2713D01*
X3780Y2720D01*
X3787Y2729D01*
X3791Y2739D01*
X3793Y2750D01*
X3791Y2761D01*
X3787Y2771D01*
X3780Y2780D01*
X3771Y2787D01*
X3761Y2791D01*
X3750Y2793D01*
D02*
G37*
G36*
X2945Y2777D02*
X2939Y2776D01*
X2929Y2772D01*
X2920Y2765D01*
X2913Y2756D01*
X2909Y2746D01*
X2908Y2740D01*
X2945D01*
Y2777D01*
D02*
G37*
G36*
X2992Y2820D02*
X2955D01*
Y2783D01*
X2961Y2784D01*
X2971Y2788D01*
X2980Y2795D01*
X2987Y2804D01*
X2991Y2814D01*
X2992Y2820D01*
D02*
G37*
G36*
X3750Y2893D02*
X3739Y2891D01*
X3729Y2887D01*
X3720Y2880D01*
X3713Y2871D01*
X3709Y2861D01*
X3707Y2850D01*
X3709Y2839D01*
X3713Y2829D01*
X3720Y2820D01*
X3729Y2813D01*
X3739Y2809D01*
X3750Y2807D01*
X3761Y2809D01*
X3771Y2813D01*
X3780Y2820D01*
X3787Y2829D01*
X3791Y2839D01*
X3793Y2850D01*
X3791Y2861D01*
X3787Y2871D01*
X3780Y2880D01*
X3771Y2887D01*
X3761Y2891D01*
X3750Y2893D01*
D02*
G37*
G36*
X2945Y2867D02*
X2939Y2866D01*
X2929Y2862D01*
X2920Y2855D01*
X2913Y2846D01*
X2909Y2836D01*
X2908Y2830D01*
X2945D01*
Y2867D01*
D02*
G37*
G36*
Y2820D02*
X2908D01*
X2909Y2814D01*
X2913Y2804D01*
X2920Y2795D01*
X2929Y2788D01*
X2939Y2784D01*
X2945Y2783D01*
Y2820D01*
D02*
G37*
G36*
X3350Y2893D02*
X3339Y2891D01*
X3329Y2887D01*
X3320Y2880D01*
X3313Y2871D01*
X3309Y2861D01*
X3307Y2850D01*
X3309Y2839D01*
X3313Y2829D01*
X3320Y2820D01*
X3329Y2813D01*
X3339Y2809D01*
X3350Y2807D01*
X3361Y2809D01*
X3371Y2813D01*
X3380Y2820D01*
X3387Y2829D01*
X3391Y2839D01*
X3393Y2850D01*
X3391Y2861D01*
X3387Y2871D01*
X3380Y2880D01*
X3371Y2887D01*
X3361Y2891D01*
X3350Y2893D01*
D02*
G37*
G36*
X6600Y3360D02*
X6591Y3359D01*
X6582Y3356D01*
X6575Y3350D01*
X6569Y3343D01*
X6566Y3334D01*
X6565Y3325D01*
Y3275D01*
X6566Y3266D01*
X6569Y3257D01*
X6575Y3250D01*
X6582Y3244D01*
X6591Y3241D01*
X6600Y3240D01*
X6609Y3241D01*
X6618Y3244D01*
X6625Y3250D01*
X6631Y3257D01*
X6634Y3266D01*
X6635Y3275D01*
Y3325D01*
X6634Y3334D01*
X6631Y3343D01*
X6625Y3350D01*
X6618Y3356D01*
X6609Y3359D01*
X6600Y3360D01*
D02*
G37*
G36*
X6700D02*
X6691Y3359D01*
X6682Y3356D01*
X6675Y3350D01*
X6669Y3343D01*
X6666Y3334D01*
X6665Y3325D01*
Y3275D01*
X6666Y3266D01*
X6669Y3257D01*
X6675Y3250D01*
X6682Y3244D01*
X6691Y3241D01*
X6700Y3240D01*
X6709Y3241D01*
X6718Y3244D01*
X6725Y3250D01*
X6731Y3257D01*
X6734Y3266D01*
X6735Y3275D01*
Y3325D01*
X6734Y3334D01*
X6731Y3343D01*
X6725Y3350D01*
X6718Y3356D01*
X6709Y3359D01*
X6700Y3360D01*
D02*
G37*
G36*
X6400D02*
X6391Y3359D01*
X6382Y3356D01*
X6375Y3350D01*
X6369Y3343D01*
X6366Y3334D01*
X6365Y3325D01*
Y3275D01*
X6366Y3266D01*
X6369Y3257D01*
X6375Y3250D01*
X6382Y3244D01*
X6391Y3241D01*
X6400Y3240D01*
X6409Y3241D01*
X6418Y3244D01*
X6425Y3250D01*
X6431Y3257D01*
X6434Y3266D01*
X6435Y3275D01*
Y3325D01*
X6434Y3334D01*
X6431Y3343D01*
X6425Y3350D01*
X6418Y3356D01*
X6409Y3359D01*
X6400Y3360D01*
D02*
G37*
G36*
X6500D02*
X6491Y3359D01*
X6482Y3356D01*
X6475Y3350D01*
X6469Y3343D01*
X6466Y3334D01*
X6465Y3325D01*
Y3275D01*
X6466Y3266D01*
X6469Y3257D01*
X6475Y3250D01*
X6482Y3244D01*
X6491Y3241D01*
X6500Y3240D01*
X6509Y3241D01*
X6518Y3244D01*
X6525Y3250D01*
X6531Y3257D01*
X6534Y3266D01*
X6535Y3275D01*
Y3325D01*
X6534Y3334D01*
X6531Y3343D01*
X6525Y3350D01*
X6518Y3356D01*
X6509Y3359D01*
X6500Y3360D01*
D02*
G37*
G36*
X2945Y3347D02*
X2846D01*
X2847Y3336D01*
X2851Y3320D01*
X2857Y3305D01*
X2866Y3291D01*
X2876Y3278D01*
X2889Y3268D01*
X2903Y3259D01*
X2918Y3253D01*
X2934Y3249D01*
X2945Y3248D01*
Y3347D01*
D02*
G37*
G36*
X3350Y3393D02*
X3339Y3391D01*
X3329Y3387D01*
X3320Y3380D01*
X3313Y3371D01*
X3309Y3361D01*
X3307Y3350D01*
X3309Y3339D01*
X3313Y3329D01*
X3320Y3320D01*
X3329Y3313D01*
X3339Y3309D01*
X3350Y3307D01*
X3361Y3309D01*
X3371Y3313D01*
X3380Y3320D01*
X3387Y3329D01*
X3391Y3339D01*
X3393Y3350D01*
X3391Y3361D01*
X3387Y3371D01*
X3380Y3380D01*
X3371Y3387D01*
X3361Y3391D01*
X3350Y3393D01*
D02*
G37*
G36*
X6059Y3478D02*
X6059Y3478D01*
X2856D01*
X2856Y3478D01*
X2851Y3477D01*
X2846Y3474D01*
X2846Y3474D01*
X2648Y3277D01*
X2643Y3277D01*
X2636Y3276D01*
X2630Y3274D01*
X2624Y3270D01*
X2620Y3264D01*
X2618Y3258D01*
X2617Y3251D01*
X2618Y3244D01*
X2620Y3238D01*
X2624Y3232D01*
X2630Y3228D01*
X2636Y3226D01*
X2643Y3225D01*
X2650Y3226D01*
X2656Y3228D01*
X2662Y3232D01*
X2666Y3238D01*
X2668Y3244D01*
X2669Y3251D01*
X2669Y3256D01*
X2862Y3450D01*
X2901D01*
X2903Y3445D01*
X2889Y3436D01*
X2876Y3426D01*
X2866Y3413D01*
X2857Y3399D01*
X2851Y3384D01*
X2847Y3368D01*
X2846Y3357D01*
X3054D01*
X3053Y3368D01*
X3049Y3384D01*
X3043Y3399D01*
X3034Y3413D01*
X3024Y3426D01*
X3011Y3436D01*
X2997Y3445D01*
X2998Y3450D01*
X3612D01*
X3614Y3445D01*
X3613Y3445D01*
X3609Y3439D01*
X3607Y3433D01*
X3606Y3426D01*
X3607Y3419D01*
X3609Y3413D01*
X3613Y3407D01*
X3619Y3403D01*
X3625Y3401D01*
X3632Y3400D01*
X3639Y3401D01*
X3645Y3403D01*
X3651Y3407D01*
X3654Y3412D01*
X3663D01*
X3665Y3407D01*
X3661Y3405D01*
X3657Y3399D01*
X3655Y3393D01*
X3654Y3386D01*
X3655Y3379D01*
X3657Y3373D01*
X3661Y3367D01*
X3667Y3363D01*
X3673Y3361D01*
X3680Y3360D01*
X3687Y3361D01*
X3693Y3363D01*
X3699Y3367D01*
X3703Y3373D01*
X3705Y3379D01*
X3706Y3386D01*
X3709Y3390D01*
X3724D01*
X3726Y3385D01*
X3720Y3380D01*
X3713Y3371D01*
X3709Y3361D01*
X3707Y3350D01*
X3709Y3339D01*
X3713Y3329D01*
X3720Y3320D01*
X3729Y3313D01*
X3739Y3309D01*
X3750Y3307D01*
X3761Y3309D01*
X3771Y3313D01*
X3780Y3320D01*
X3787Y3329D01*
X3791Y3339D01*
X3793Y3350D01*
X3791Y3361D01*
X3794Y3365D01*
X4795D01*
X4796Y3360D01*
X4791Y3359D01*
X4782Y3356D01*
X4775Y3350D01*
X4769Y3343D01*
X4766Y3334D01*
X4765Y3325D01*
Y3275D01*
X4766Y3266D01*
X4769Y3257D01*
X4775Y3250D01*
X4782Y3244D01*
X4791Y3241D01*
X4800Y3240D01*
X4809Y3241D01*
X4818Y3244D01*
X4825Y3250D01*
X4831Y3257D01*
X4834Y3266D01*
X4835Y3275D01*
Y3325D01*
X4834Y3334D01*
X4831Y3343D01*
X4825Y3350D01*
X4818Y3356D01*
X4809Y3359D01*
X4804Y3360D01*
X4805Y3365D01*
X4895D01*
X4896Y3360D01*
X4891Y3359D01*
X4882Y3356D01*
X4875Y3350D01*
X4869Y3343D01*
X4866Y3334D01*
X4865Y3325D01*
Y3275D01*
X4866Y3266D01*
X4869Y3257D01*
X4875Y3250D01*
X4882Y3245D01*
Y3000D01*
X4882Y3000D01*
X4882D01*
X4884Y2993D01*
X4887Y2987D01*
X5140Y2734D01*
X5140Y2734D01*
X5146Y2731D01*
X5153Y2729D01*
X6048D01*
X6048Y2728D01*
X6054Y2724D01*
X6060Y2722D01*
X6067Y2721D01*
X6074Y2722D01*
X6080Y2724D01*
X6086Y2728D01*
X6090Y2734D01*
X6092Y2740D01*
X6093Y2747D01*
X6092Y2754D01*
X6090Y2760D01*
X6086Y2766D01*
X6080Y2770D01*
X6074Y2772D01*
X6067Y2773D01*
X6060Y2772D01*
X6054Y2770D01*
X6048Y2766D01*
X6048Y2765D01*
X5160D01*
X4918Y3007D01*
Y3245D01*
X4925Y3250D01*
X4931Y3257D01*
X4934Y3266D01*
X4935Y3275D01*
Y3325D01*
X4934Y3334D01*
X4931Y3343D01*
X4925Y3350D01*
X4918Y3356D01*
X4909Y3359D01*
X4904Y3360D01*
X4905Y3365D01*
X4995D01*
X4996Y3360D01*
X4991Y3359D01*
X4982Y3356D01*
X4975Y3350D01*
X4969Y3343D01*
X4966Y3334D01*
X4965Y3325D01*
Y3275D01*
X4966Y3266D01*
X4969Y3257D01*
X4975Y3250D01*
X4982Y3244D01*
X4991Y3241D01*
X5000Y3240D01*
X5009Y3241D01*
X5018Y3244D01*
X5025Y3250D01*
X5031Y3257D01*
X5034Y3266D01*
X5035Y3275D01*
Y3325D01*
X5034Y3334D01*
X5031Y3343D01*
X5025Y3350D01*
X5018Y3356D01*
X5009Y3359D01*
X5004Y3360D01*
X5005Y3365D01*
X5095D01*
X5096Y3360D01*
X5091Y3359D01*
X5082Y3356D01*
X5075Y3350D01*
X5069Y3343D01*
X5066Y3334D01*
X5065Y3325D01*
Y3275D01*
X5066Y3266D01*
X5069Y3257D01*
X5075Y3250D01*
X5082Y3244D01*
X5091Y3241D01*
X5100Y3240D01*
X5109Y3241D01*
X5118Y3244D01*
X5125Y3250D01*
X5131Y3257D01*
X5134Y3266D01*
X5135Y3275D01*
Y3325D01*
X5134Y3334D01*
X5131Y3343D01*
X5125Y3350D01*
X5118Y3356D01*
X5109Y3359D01*
X5104Y3360D01*
X5105Y3365D01*
X5195D01*
X5196Y3360D01*
X5191Y3359D01*
X5182Y3356D01*
X5175Y3350D01*
X5169Y3343D01*
X5166Y3334D01*
X5165Y3325D01*
Y3275D01*
X5166Y3266D01*
X5169Y3257D01*
X5175Y3250D01*
X5182Y3244D01*
X5191Y3241D01*
X5200Y3240D01*
X5209Y3241D01*
X5218Y3244D01*
X5225Y3250D01*
X5231Y3257D01*
X5234Y3266D01*
X5235Y3275D01*
Y3325D01*
X5234Y3334D01*
X5231Y3343D01*
X5225Y3350D01*
X5218Y3356D01*
X5209Y3359D01*
X5204Y3360D01*
X5205Y3365D01*
X5295D01*
X5296Y3360D01*
X5291Y3359D01*
X5282Y3356D01*
X5275Y3350D01*
X5269Y3343D01*
X5266Y3334D01*
X5265Y3325D01*
Y3275D01*
X5266Y3266D01*
X5269Y3257D01*
X5275Y3250D01*
X5282Y3244D01*
X5291Y3241D01*
X5300Y3240D01*
X5309Y3241D01*
X5318Y3244D01*
X5325Y3250D01*
X5331Y3257D01*
X5334Y3266D01*
X5335Y3275D01*
Y3325D01*
X5334Y3334D01*
X5331Y3343D01*
X5325Y3350D01*
X5318Y3356D01*
X5309Y3359D01*
X5304Y3360D01*
X5305Y3365D01*
X5377D01*
X5382Y3360D01*
X5382Y3355D01*
X5375Y3350D01*
X5369Y3343D01*
X5366Y3334D01*
X5365Y3325D01*
Y3275D01*
X5366Y3266D01*
X5369Y3257D01*
X5375Y3250D01*
X5382Y3244D01*
X5391Y3241D01*
X5400Y3240D01*
X5409Y3241D01*
X5418Y3244D01*
X5425Y3250D01*
X5431Y3257D01*
X5434Y3266D01*
X5435Y3275D01*
Y3325D01*
X5434Y3334D01*
X5431Y3343D01*
X5425Y3350D01*
X5418Y3356D01*
X5414Y3357D01*
Y3362D01*
X5413Y3367D01*
X5412Y3369D01*
X5410Y3372D01*
X5410Y3372D01*
X5393Y3389D01*
X5393Y3390D01*
X5502D01*
X5565Y3327D01*
X5565Y3325D01*
Y3275D01*
X5566Y3266D01*
X5569Y3257D01*
X5575Y3250D01*
X5582Y3244D01*
X5591Y3241D01*
X5600Y3240D01*
X5609Y3241D01*
X5618Y3244D01*
X5625Y3250D01*
X5631Y3257D01*
X5634Y3266D01*
X5635Y3275D01*
Y3325D01*
X5634Y3334D01*
X5631Y3343D01*
X5625Y3350D01*
X5618Y3356D01*
X5609Y3359D01*
X5600Y3360D01*
X5591Y3359D01*
X5582Y3356D01*
X5579Y3353D01*
X5525Y3407D01*
X5527Y3412D01*
X5768D01*
X5820Y3360D01*
X5817Y3356D01*
X5809Y3359D01*
X5800Y3360D01*
X5791Y3359D01*
X5782Y3356D01*
X5775Y3350D01*
X5769Y3343D01*
X5766Y3334D01*
X5765Y3325D01*
Y3275D01*
X5766Y3266D01*
X5769Y3257D01*
X5775Y3250D01*
X5782Y3244D01*
X5791Y3241D01*
X5800Y3240D01*
X5809Y3241D01*
X5818Y3244D01*
X5825Y3250D01*
X5831Y3257D01*
X5834Y3266D01*
X5835Y3275D01*
Y3325D01*
X5834Y3334D01*
X5831Y3342D01*
X5835Y3345D01*
X5865Y3315D01*
Y3275D01*
X5866Y3266D01*
X5869Y3257D01*
X5875Y3250D01*
X5882Y3244D01*
X5891Y3241D01*
X5900Y3240D01*
X5909Y3241D01*
X5918Y3244D01*
X5925Y3250D01*
X5931Y3257D01*
X5934Y3266D01*
X5935Y3275D01*
Y3325D01*
X5934Y3334D01*
X5931Y3343D01*
X5925Y3350D01*
X5918Y3356D01*
X5909Y3359D01*
X5900Y3360D01*
X5891Y3359D01*
X5882Y3356D01*
X5875Y3350D01*
X5871Y3350D01*
X5784Y3436D01*
X5779Y3439D01*
X5774Y3440D01*
X5774Y3440D01*
X3654D01*
X3651Y3445D01*
X3645Y3449D01*
X3645Y3450D01*
X6053D01*
X6138Y3365D01*
Y3338D01*
X6133Y3337D01*
X6131Y3343D01*
X6125Y3350D01*
X6118Y3356D01*
X6109Y3359D01*
X6100Y3360D01*
X6091Y3359D01*
X6082Y3356D01*
X6075Y3350D01*
X6069Y3343D01*
X6066Y3334D01*
X6065Y3325D01*
Y3275D01*
X6066Y3266D01*
X6069Y3257D01*
X6075Y3250D01*
X6082Y3244D01*
X6091Y3241D01*
X6100Y3240D01*
X6109Y3241D01*
X6118Y3244D01*
X6125Y3250D01*
X6131Y3257D01*
X6133Y3263D01*
X6138Y3262D01*
Y3225D01*
X6138Y3225D01*
X6139Y3220D01*
X6142Y3215D01*
X6186Y3171D01*
Y2657D01*
X6182Y2656D01*
X6175Y2650D01*
X6169Y2643D01*
X6166Y2634D01*
X6165Y2625D01*
Y2575D01*
X6166Y2566D01*
X6169Y2557D01*
X6175Y2550D01*
X6182Y2544D01*
X6191Y2541D01*
X6200Y2540D01*
X6209Y2541D01*
X6218Y2544D01*
X6225Y2550D01*
X6231Y2557D01*
X6234Y2566D01*
X6235Y2571D01*
X6240Y2570D01*
Y2510D01*
X6218Y2488D01*
X6211Y2491D01*
X6200Y2493D01*
X6189Y2491D01*
X6179Y2487D01*
X6170Y2480D01*
X6163Y2471D01*
X6159Y2461D01*
X6157Y2450D01*
X6159Y2439D01*
X6163Y2429D01*
X6170Y2420D01*
X6179Y2413D01*
X6189Y2409D01*
X6200Y2407D01*
X6211Y2409D01*
X6221Y2413D01*
X6230Y2420D01*
X6237Y2429D01*
X6241Y2439D01*
X6243Y2450D01*
X6241Y2461D01*
X6238Y2468D01*
X6264Y2494D01*
X6264Y2494D01*
X6266Y2497D01*
X6267Y2499D01*
X6268Y2504D01*
D01*
D01*
D01*
D01*
D01*
X6268D01*
D01*
D01*
D01*
D01*
Y2504D01*
X6268D01*
D01*
Y2504D01*
D01*
D01*
D01*
D01*
D01*
D01*
D01*
D01*
D01*
D01*
D01*
D01*
Y2504D01*
D01*
X6268D01*
D01*
D01*
D01*
D01*
X6268Y2504D01*
Y2551D01*
X6273Y2553D01*
X6275Y2550D01*
X6282Y2544D01*
X6286Y2543D01*
Y2424D01*
X6282Y2421D01*
X6277Y2423D01*
X6270Y2424D01*
X6263Y2423D01*
X6257Y2421D01*
X6251Y2417D01*
X6247Y2411D01*
X6245Y2405D01*
X6244Y2398D01*
X6245Y2391D01*
X6247Y2385D01*
X6251Y2379D01*
X6256Y2376D01*
Y2333D01*
X6251Y2330D01*
X6247Y2324D01*
X6245Y2318D01*
X6244Y2311D01*
X6245Y2304D01*
X6247Y2298D01*
X6250Y2295D01*
X6247Y2290D01*
X6172D01*
X6169Y2295D01*
X6163Y2299D01*
X6157Y2301D01*
X6150Y2302D01*
X6143Y2301D01*
X6137Y2299D01*
X6131Y2295D01*
X6127Y2289D01*
X6125Y2283D01*
X6124Y2276D01*
X6125Y2269D01*
X6127Y2263D01*
X6131Y2257D01*
X6137Y2253D01*
X6143Y2251D01*
X6150Y2250D01*
X6157Y2251D01*
X6163Y2253D01*
X6169Y2257D01*
X6172Y2262D01*
X6279D01*
X6279Y2262D01*
X6284Y2263D01*
X6289Y2266D01*
X6310Y2287D01*
X6310Y2287D01*
X6313Y2292D01*
D01*
D01*
D01*
Y2292D01*
X6313D01*
D01*
D01*
D01*
D01*
X6313D01*
D01*
D01*
D01*
D01*
Y2292D01*
X6313D01*
D01*
Y2292D01*
D01*
D01*
D01*
D01*
D01*
D01*
D01*
D01*
D01*
D01*
D01*
D01*
Y2292D01*
D01*
X6313D01*
D01*
D01*
D01*
D01*
X6313Y2292D01*
X6314Y2297D01*
X6314Y2297D01*
Y2543D01*
X6318Y2544D01*
X6325Y2550D01*
X6331Y2557D01*
X6331Y2558D01*
X6336Y2557D01*
Y2187D01*
X6305Y2157D01*
X6300Y2157D01*
X6293Y2156D01*
X6287Y2154D01*
X6281Y2150D01*
X6277Y2144D01*
X6275Y2138D01*
X6274Y2131D01*
X6275Y2124D01*
X6277Y2118D01*
X6281Y2112D01*
X6287Y2108D01*
X6293Y2106D01*
X6300Y2105D01*
X6307Y2106D01*
X6313Y2108D01*
X6319Y2112D01*
X6323Y2118D01*
X6325Y2124D01*
X6326Y2131D01*
X6326Y2136D01*
X6360Y2171D01*
X6360Y2171D01*
X6363Y2176D01*
D01*
D01*
D01*
Y2176D01*
X6363D01*
D01*
D01*
D01*
D01*
X6363D01*
D01*
D01*
D01*
D01*
Y2176D01*
X6363D01*
D01*
Y2176D01*
D01*
D01*
D01*
D01*
D01*
D01*
D01*
D01*
D01*
D01*
D01*
D01*
Y2176D01*
D01*
X6363D01*
D01*
D01*
D01*
D01*
X6363Y2176D01*
X6364Y2181D01*
X6364Y2181D01*
Y2557D01*
X6369Y2558D01*
X6369Y2557D01*
X6375Y2550D01*
X6382Y2544D01*
X6391Y2541D01*
X6400Y2540D01*
X6409Y2541D01*
X6418Y2544D01*
X6425Y2550D01*
X6431Y2557D01*
X6434Y2566D01*
X6435Y2575D01*
Y2625D01*
X6434Y2634D01*
X6431Y2643D01*
X6425Y2650D01*
X6418Y2656D01*
X6409Y2659D01*
X6400Y2660D01*
X6391Y2659D01*
X6382Y2656D01*
X6375Y2650D01*
X6369Y2643D01*
X6369Y2642D01*
X6364Y2643D01*
Y2645D01*
X6364Y2645D01*
X6363Y2650D01*
X6363D01*
D01*
D01*
X6363Y2650D01*
D01*
D01*
D01*
D01*
X6363Y2650D01*
D01*
D01*
Y2650D01*
D01*
X6363D01*
D01*
D01*
X6363D01*
D01*
D01*
X6360Y2655D01*
X6360Y2655D01*
X6334Y2681D01*
X6329Y2684D01*
X6324Y2685D01*
X6324Y2685D01*
X6276D01*
X6276Y2685D01*
X6271Y2684D01*
X6266Y2681D01*
X6244Y2659D01*
X6241Y2654D01*
X6240Y2649D01*
X6240Y2649D01*
Y2630D01*
X6235Y2629D01*
X6234Y2634D01*
X6231Y2643D01*
X6225Y2650D01*
X6218Y2656D01*
X6214Y2657D01*
Y3177D01*
X6214Y3177D01*
X6213Y3182D01*
X6213D01*
D01*
D01*
X6213Y3182D01*
D01*
D01*
D01*
D01*
X6213Y3182D01*
D01*
D01*
Y3182D01*
D01*
X6213D01*
D01*
D01*
X6213D01*
D01*
D01*
X6210Y3187D01*
X6210Y3187D01*
X6166Y3231D01*
Y3254D01*
X6171Y3255D01*
X6175Y3250D01*
X6182Y3244D01*
X6191Y3241D01*
X6200Y3240D01*
X6209Y3241D01*
X6218Y3244D01*
X6225Y3250D01*
X6231Y3257D01*
X6234Y3266D01*
X6235Y3275D01*
Y3325D01*
X6234Y3334D01*
X6231Y3343D01*
X6225Y3350D01*
X6218Y3356D01*
X6209Y3359D01*
X6200Y3360D01*
X6191Y3359D01*
X6182Y3356D01*
X6175Y3350D01*
X6171Y3345D01*
X6166Y3346D01*
Y3371D01*
X6166Y3371D01*
X6165Y3376D01*
X6165D01*
D01*
D01*
X6165Y3376D01*
D01*
D01*
D01*
D01*
X6165Y3376D01*
D01*
D01*
Y3376D01*
D01*
X6165D01*
D01*
D01*
X6165D01*
D01*
D01*
X6162Y3381D01*
X6162Y3381D01*
X6069Y3474D01*
X6064Y3477D01*
X6059Y3478D01*
D02*
G37*
G36*
X3054Y3347D02*
X2955D01*
Y3248D01*
X2966Y3249D01*
X2982Y3253D01*
X2997Y3259D01*
X3011Y3268D01*
X3024Y3278D01*
X3034Y3291D01*
X3043Y3305D01*
X3049Y3320D01*
X3053Y3336D01*
X3054Y3347D01*
D02*
G37*
G36*
X4650Y3343D02*
X4639Y3341D01*
X4629Y3337D01*
X4620Y3330D01*
X4613Y3321D01*
X4609Y3311D01*
X4607Y3300D01*
X4609Y3289D01*
X4613Y3279D01*
X4620Y3270D01*
X4629Y3263D01*
X4639Y3259D01*
X4650Y3257D01*
X4661Y3259D01*
X4671Y3263D01*
X4680Y3270D01*
X4687Y3279D01*
X4691Y3289D01*
X4693Y3300D01*
X4691Y3311D01*
X4687Y3321D01*
X4680Y3330D01*
X4671Y3337D01*
X4661Y3341D01*
X4650Y3343D01*
D02*
G37*
G36*
X6300Y3360D02*
X6291Y3359D01*
X6282Y3356D01*
X6275Y3350D01*
X6269Y3343D01*
X6266Y3334D01*
X6265Y3325D01*
Y3275D01*
X6266Y3266D01*
X6269Y3257D01*
X6275Y3250D01*
X6282Y3244D01*
X6291Y3241D01*
X6300Y3240D01*
X6309Y3241D01*
X6318Y3244D01*
X6325Y3250D01*
X6331Y3257D01*
X6334Y3266D01*
X6335Y3275D01*
Y3325D01*
X6334Y3334D01*
X6331Y3343D01*
X6325Y3350D01*
X6318Y3356D01*
X6309Y3359D01*
X6300Y3360D01*
D02*
G37*
G36*
X3055Y3092D02*
Y3055D01*
X3092D01*
X3091Y3061D01*
X3087Y3071D01*
X3080Y3080D01*
X3071Y3087D01*
X3061Y3091D01*
X3055Y3092D01*
D02*
G37*
G36*
X3350Y3193D02*
X3339Y3191D01*
X3329Y3187D01*
X3320Y3180D01*
X3313Y3171D01*
X3309Y3161D01*
X3307Y3150D01*
X3309Y3139D01*
X3313Y3129D01*
X3320Y3120D01*
X3329Y3113D01*
X3339Y3109D01*
X3350Y3107D01*
X3361Y3109D01*
X3371Y3113D01*
X3380Y3120D01*
X3387Y3129D01*
X3391Y3139D01*
X3393Y3150D01*
X3391Y3161D01*
X3387Y3171D01*
X3380Y3180D01*
X3371Y3187D01*
X3361Y3191D01*
X3350Y3193D01*
D02*
G37*
G36*
X2955Y3047D02*
Y3010D01*
X2992D01*
X2991Y3016D01*
X2987Y3026D01*
X2980Y3035D01*
X2971Y3042D01*
X2961Y3046D01*
X2955Y3047D01*
D02*
G37*
G36*
X3045Y3092D02*
X3039Y3091D01*
X3029Y3087D01*
X3020Y3080D01*
X3013Y3071D01*
X3009Y3061D01*
X3008Y3055D01*
X3045D01*
Y3092D01*
D02*
G37*
G36*
X3350Y3293D02*
X3339Y3291D01*
X3329Y3287D01*
X3320Y3280D01*
X3313Y3271D01*
X3309Y3261D01*
X3307Y3250D01*
X3309Y3239D01*
X3313Y3229D01*
X3320Y3220D01*
X3329Y3213D01*
X3339Y3209D01*
X3350Y3207D01*
X3361Y3209D01*
X3371Y3213D01*
X3380Y3220D01*
X3387Y3229D01*
X3391Y3239D01*
X3393Y3250D01*
X3391Y3261D01*
X3387Y3271D01*
X3380Y3280D01*
X3371Y3287D01*
X3361Y3291D01*
X3350Y3293D01*
D02*
G37*
G36*
X5700Y3360D02*
X5691Y3359D01*
X5682Y3356D01*
X5675Y3350D01*
X5669Y3343D01*
X5666Y3334D01*
X5665Y3325D01*
Y3275D01*
X5666Y3266D01*
X5669Y3257D01*
X5675Y3250D01*
X5682Y3244D01*
X5691Y3241D01*
X5700Y3240D01*
X5709Y3241D01*
X5718Y3244D01*
X5725Y3250D01*
X5731Y3257D01*
X5734Y3266D01*
X5735Y3275D01*
Y3325D01*
X5734Y3334D01*
X5731Y3343D01*
X5725Y3350D01*
X5718Y3356D01*
X5709Y3359D01*
X5700Y3360D01*
D02*
G37*
G36*
X6000D02*
X5991Y3359D01*
X5982Y3356D01*
X5975Y3350D01*
X5969Y3343D01*
X5966Y3334D01*
X5965Y3325D01*
Y3275D01*
X5966Y3266D01*
X5969Y3257D01*
X5975Y3250D01*
X5982Y3244D01*
X5991Y3241D01*
X6000Y3240D01*
X6009Y3241D01*
X6018Y3244D01*
X6025Y3250D01*
X6031Y3257D01*
X6034Y3266D01*
X6035Y3275D01*
Y3325D01*
X6034Y3334D01*
X6031Y3343D01*
X6025Y3350D01*
X6018Y3356D01*
X6009Y3359D01*
X6000Y3360D01*
D02*
G37*
G36*
X3750Y3293D02*
X3739Y3291D01*
X3729Y3287D01*
X3720Y3280D01*
X3713Y3271D01*
X3709Y3261D01*
X3707Y3250D01*
X3709Y3239D01*
X3713Y3229D01*
X3720Y3220D01*
X3717Y3215D01*
X3711D01*
X3711Y3215D01*
X3706Y3214D01*
X3701Y3211D01*
X3701Y3211D01*
X3671Y3181D01*
X3668Y3176D01*
X3667Y3171D01*
X3667Y3171D01*
Y3072D01*
X3667Y3072D01*
X3668Y3067D01*
X3671Y3062D01*
X3693Y3040D01*
X3698Y3037D01*
X3703Y3036D01*
X3703Y3036D01*
X3710D01*
X3713Y3029D01*
X3720Y3020D01*
X3729Y3013D01*
X3739Y3009D01*
X3750Y3007D01*
X3761Y3009D01*
X3771Y3013D01*
X3780Y3020D01*
X3787Y3029D01*
X3791Y3039D01*
X3793Y3050D01*
X3791Y3061D01*
X3787Y3071D01*
X3780Y3080D01*
X3771Y3087D01*
X3761Y3091D01*
X3750Y3093D01*
X3739Y3091D01*
X3729Y3087D01*
X3720Y3080D01*
X3713Y3071D01*
X3711Y3068D01*
X3706Y3067D01*
X3695Y3078D01*
Y3165D01*
X3716Y3186D01*
X3721Y3185D01*
X3722Y3182D01*
X3720Y3180D01*
X3713Y3171D01*
X3709Y3161D01*
X3707Y3150D01*
X3709Y3139D01*
X3713Y3129D01*
X3720Y3120D01*
X3729Y3113D01*
X3739Y3109D01*
X3750Y3107D01*
X3761Y3109D01*
X3771Y3113D01*
X3780Y3120D01*
X3787Y3129D01*
X3790Y3135D01*
X3977D01*
X3980Y3130D01*
X3986Y3126D01*
X3992Y3124D01*
X3999Y3123D01*
X4006Y3124D01*
X4012Y3126D01*
X4018Y3130D01*
X4022Y3136D01*
X4024Y3142D01*
X4025Y3149D01*
X4024Y3156D01*
X4022Y3162D01*
X4018Y3168D01*
X4012Y3172D01*
X4006Y3174D01*
D01*
D01*
D01*
X4008Y3176D01*
D01*
X4014Y3178D01*
X4020Y3182D01*
X4024Y3188D01*
X4026Y3194D01*
X4027Y3201D01*
X4026Y3208D01*
X4024Y3214D01*
X4020Y3220D01*
X4014Y3224D01*
X4008Y3226D01*
X4001Y3227D01*
X3994Y3226D01*
X3988Y3224D01*
X3982Y3220D01*
X3979Y3215D01*
X3783D01*
X3780Y3220D01*
X3787Y3229D01*
X3791Y3239D01*
X3793Y3250D01*
X3791Y3261D01*
X3787Y3271D01*
X3780Y3280D01*
X3771Y3287D01*
X3761Y3291D01*
X3750Y3293D01*
D02*
G37*
G36*
X5500Y3360D02*
X5491Y3359D01*
X5482Y3356D01*
X5475Y3350D01*
X5469Y3343D01*
X5466Y3334D01*
X5465Y3325D01*
Y3275D01*
X5466Y3266D01*
X5469Y3257D01*
X5475Y3250D01*
X5482Y3244D01*
X5491Y3241D01*
X5500Y3240D01*
X5509Y3241D01*
X5518Y3244D01*
X5525Y3250D01*
X5531Y3257D01*
X5534Y3266D01*
X5535Y3275D01*
Y3325D01*
X5534Y3334D01*
X5531Y3343D01*
X5525Y3350D01*
X5518Y3356D01*
X5509Y3359D01*
X5500Y3360D01*
D02*
G37*
G36*
X3350Y2793D02*
X3339Y2791D01*
X3329Y2787D01*
X3320Y2780D01*
X3313Y2771D01*
X3309Y2761D01*
X3307Y2750D01*
X3309Y2739D01*
X3313Y2729D01*
X3320Y2720D01*
X3329Y2713D01*
X3339Y2709D01*
X3350Y2707D01*
X3361Y2709D01*
X3371Y2713D01*
X3380Y2720D01*
X3387Y2729D01*
X3391Y2739D01*
X3393Y2750D01*
X3391Y2761D01*
X3387Y2771D01*
X3380Y2780D01*
X3371Y2787D01*
X3361Y2791D01*
X3350Y2793D01*
D02*
G37*
G36*
X5100Y2660D02*
X5091Y2659D01*
X5082Y2656D01*
X5075Y2650D01*
X5069Y2643D01*
X5066Y2634D01*
X5065Y2625D01*
Y2575D01*
X5066Y2566D01*
X5069Y2557D01*
X5075Y2550D01*
X5082Y2544D01*
X5091Y2541D01*
X5100Y2540D01*
X5109Y2541D01*
X5118Y2544D01*
X5125Y2550D01*
X5131Y2557D01*
X5134Y2566D01*
X5135Y2575D01*
Y2625D01*
X5134Y2634D01*
X5131Y2643D01*
X5125Y2650D01*
X5118Y2656D01*
X5109Y2659D01*
X5100Y2660D01*
D02*
G37*
G36*
X5200D02*
X5191Y2659D01*
X5182Y2656D01*
X5175Y2650D01*
X5169Y2643D01*
X5166Y2634D01*
X5165Y2625D01*
Y2575D01*
X5166Y2566D01*
X5169Y2557D01*
X5175Y2550D01*
X5182Y2544D01*
X5191Y2541D01*
X5200Y2540D01*
X5209Y2541D01*
X5218Y2544D01*
X5225Y2550D01*
X5231Y2557D01*
X5234Y2566D01*
X5235Y2575D01*
Y2625D01*
X5234Y2634D01*
X5231Y2643D01*
X5225Y2650D01*
X5218Y2656D01*
X5209Y2659D01*
X5200Y2660D01*
D02*
G37*
G36*
X4900D02*
X4891Y2659D01*
X4882Y2656D01*
X4875Y2650D01*
X4869Y2643D01*
X4866Y2634D01*
X4865Y2625D01*
Y2575D01*
X4866Y2566D01*
X4869Y2557D01*
X4875Y2550D01*
X4882Y2544D01*
X4891Y2541D01*
X4900Y2540D01*
X4909Y2541D01*
X4918Y2544D01*
X4925Y2550D01*
X4931Y2557D01*
X4934Y2566D01*
X4935Y2575D01*
Y2625D01*
X4934Y2634D01*
X4931Y2643D01*
X4925Y2650D01*
X4918Y2656D01*
X4909Y2659D01*
X4900Y2660D01*
D02*
G37*
G36*
X5000D02*
X4991Y2659D01*
X4982Y2656D01*
X4975Y2650D01*
X4969Y2643D01*
X4966Y2634D01*
X4965Y2625D01*
Y2575D01*
X4966Y2566D01*
X4969Y2557D01*
X4975Y2550D01*
X4982Y2544D01*
X4991Y2541D01*
X5000Y2540D01*
X5009Y2541D01*
X5018Y2544D01*
X5025Y2550D01*
X5031Y2557D01*
X5034Y2566D01*
X5035Y2575D01*
Y2625D01*
X5034Y2634D01*
X5031Y2643D01*
X5025Y2650D01*
X5018Y2656D01*
X5009Y2659D01*
X5000Y2660D01*
D02*
G37*
G36*
X5300D02*
X5291Y2659D01*
X5282Y2656D01*
X5275Y2650D01*
X5269Y2643D01*
X5266Y2634D01*
X5265Y2625D01*
Y2575D01*
X5266Y2566D01*
X5269Y2557D01*
X5275Y2550D01*
X5282Y2544D01*
X5291Y2541D01*
X5300Y2540D01*
X5309Y2541D01*
X5318Y2544D01*
X5325Y2550D01*
X5331Y2557D01*
X5334Y2566D01*
X5335Y2575D01*
Y2625D01*
X5334Y2634D01*
X5331Y2643D01*
X5325Y2650D01*
X5318Y2656D01*
X5309Y2659D01*
X5300Y2660D01*
D02*
G37*
G36*
X5600D02*
X5591Y2659D01*
X5582Y2656D01*
X5575Y2650D01*
X5569Y2643D01*
X5566Y2634D01*
X5565Y2625D01*
Y2575D01*
X5566Y2566D01*
X5569Y2557D01*
X5575Y2550D01*
X5582Y2544D01*
X5591Y2541D01*
X5600Y2540D01*
X5609Y2541D01*
X5618Y2544D01*
X5625Y2550D01*
X5631Y2557D01*
X5634Y2566D01*
X5635Y2575D01*
Y2625D01*
X5634Y2634D01*
X5631Y2643D01*
X5625Y2650D01*
X5618Y2656D01*
X5609Y2659D01*
X5600Y2660D01*
D02*
G37*
G36*
X5700D02*
X5691Y2659D01*
X5682Y2656D01*
X5675Y2650D01*
X5669Y2643D01*
X5666Y2634D01*
X5665Y2625D01*
Y2575D01*
X5666Y2566D01*
X5669Y2557D01*
X5675Y2550D01*
X5682Y2544D01*
X5691Y2541D01*
X5700Y2540D01*
X5709Y2541D01*
X5718Y2544D01*
X5725Y2550D01*
X5731Y2557D01*
X5734Y2566D01*
X5735Y2575D01*
Y2625D01*
X5734Y2634D01*
X5731Y2643D01*
X5725Y2650D01*
X5718Y2656D01*
X5709Y2659D01*
X5700Y2660D01*
D02*
G37*
G36*
X5400D02*
X5391Y2659D01*
X5382Y2656D01*
X5375Y2650D01*
X5369Y2643D01*
X5366Y2634D01*
X5365Y2625D01*
Y2575D01*
X5366Y2566D01*
X5369Y2557D01*
X5375Y2550D01*
X5382Y2544D01*
X5391Y2541D01*
X5400Y2540D01*
X5409Y2541D01*
X5418Y2544D01*
X5425Y2550D01*
X5431Y2557D01*
X5434Y2566D01*
X5435Y2575D01*
Y2625D01*
X5434Y2634D01*
X5431Y2643D01*
X5425Y2650D01*
X5418Y2656D01*
X5409Y2659D01*
X5400Y2660D01*
D02*
G37*
G36*
X5500D02*
X5491Y2659D01*
X5482Y2656D01*
X5475Y2650D01*
X5469Y2643D01*
X5466Y2634D01*
X5465Y2625D01*
Y2575D01*
X5466Y2566D01*
X5469Y2557D01*
X5475Y2550D01*
X5482Y2544D01*
X5491Y2541D01*
X5500Y2540D01*
X5509Y2541D01*
X5518Y2544D01*
X5525Y2550D01*
X5531Y2557D01*
X5534Y2566D01*
X5535Y2575D01*
Y2625D01*
X5534Y2634D01*
X5531Y2643D01*
X5525Y2650D01*
X5518Y2656D01*
X5509Y2659D01*
X5500Y2660D01*
D02*
G37*
G36*
X5800D02*
X5791Y2659D01*
X5782Y2656D01*
X5775Y2650D01*
X5769Y2643D01*
X5766Y2634D01*
X5765Y2625D01*
Y2575D01*
X5766Y2566D01*
X5769Y2557D01*
X5775Y2550D01*
X5782Y2544D01*
X5786Y2543D01*
Y2535D01*
X5715Y2464D01*
X5540D01*
X5537Y2471D01*
X5530Y2480D01*
X5521Y2487D01*
X5511Y2491D01*
X5500Y2493D01*
X5489Y2491D01*
X5479Y2487D01*
X5470Y2480D01*
X5463Y2471D01*
X5459Y2461D01*
X5457Y2450D01*
X5459Y2439D01*
X5463Y2429D01*
X5470Y2420D01*
X5479Y2413D01*
X5489Y2409D01*
X5500Y2407D01*
X5511Y2409D01*
X5521Y2413D01*
X5530Y2420D01*
X5537Y2429D01*
X5540Y2436D01*
X5721D01*
X5721Y2436D01*
X5726Y2437D01*
X5731Y2440D01*
X5754Y2463D01*
X5759Y2461D01*
X5757Y2450D01*
X5759Y2439D01*
X5763Y2429D01*
X5770Y2420D01*
X5779Y2413D01*
X5789Y2409D01*
X5800Y2407D01*
X5811Y2409D01*
X5821Y2413D01*
X5830Y2420D01*
X5837Y2429D01*
X5841Y2439D01*
X5843Y2450D01*
X5841Y2461D01*
X5837Y2471D01*
X5830Y2480D01*
X5821Y2487D01*
X5811Y2491D01*
X5800Y2493D01*
X5789Y2491D01*
X5787Y2496D01*
X5810Y2519D01*
X5810Y2519D01*
X5813Y2524D01*
D01*
D01*
D01*
Y2524D01*
X5813D01*
D01*
D01*
D01*
D01*
X5813D01*
D01*
D01*
D01*
D01*
Y2524D01*
X5813D01*
D01*
Y2524D01*
D01*
D01*
D01*
D01*
D01*
D01*
D01*
D01*
D01*
D01*
D01*
D01*
Y2524D01*
D01*
X5813D01*
D01*
D01*
D01*
D01*
X5813Y2524D01*
X5814Y2529D01*
X5814Y2529D01*
Y2543D01*
X5818Y2544D01*
X5825Y2550D01*
X5831Y2557D01*
X5834Y2566D01*
X5835Y2575D01*
Y2625D01*
X5834Y2634D01*
X5831Y2643D01*
X5825Y2650D01*
X5818Y2656D01*
X5809Y2659D01*
X5800Y2660D01*
D02*
G37*
G36*
X2955Y2472D02*
Y2373D01*
X3054D01*
X3053Y2384D01*
X3049Y2400D01*
X3043Y2415D01*
X3034Y2429D01*
X3024Y2442D01*
X3011Y2452D01*
X2997Y2461D01*
X2982Y2467D01*
X2966Y2471D01*
X2955Y2472D01*
D02*
G37*
G36*
X3350Y2493D02*
X3339Y2491D01*
X3329Y2487D01*
X3320Y2480D01*
X3313Y2471D01*
X3309Y2461D01*
X3307Y2450D01*
X3309Y2439D01*
X3313Y2429D01*
X3320Y2420D01*
X3329Y2413D01*
X3339Y2409D01*
X3350Y2407D01*
X3361Y2409D01*
X3371Y2413D01*
X3380Y2420D01*
X3387Y2429D01*
X3391Y2439D01*
X3393Y2450D01*
X3391Y2461D01*
X3387Y2471D01*
X3380Y2480D01*
X3371Y2487D01*
X3361Y2491D01*
X3350Y2493D01*
D02*
G37*
G36*
X6200Y2393D02*
X6189Y2391D01*
X6179Y2387D01*
X6170Y2380D01*
X6163Y2371D01*
X6159Y2361D01*
X6157Y2350D01*
X6159Y2339D01*
X6163Y2329D01*
X6170Y2320D01*
X6179Y2313D01*
X6189Y2309D01*
X6200Y2307D01*
X6211Y2309D01*
X6221Y2313D01*
X6230Y2320D01*
X6237Y2329D01*
X6241Y2339D01*
X6243Y2350D01*
X6241Y2361D01*
X6237Y2371D01*
X6230Y2380D01*
X6221Y2387D01*
X6211Y2391D01*
X6200Y2393D01*
D02*
G37*
G36*
X2945Y2472D02*
X2934Y2471D01*
X2918Y2467D01*
X2903Y2461D01*
X2889Y2452D01*
X2876Y2442D01*
X2866Y2429D01*
X2857Y2415D01*
X2851Y2400D01*
X2847Y2384D01*
X2846Y2373D01*
X2945D01*
Y2472D01*
D02*
G37*
G36*
X3750Y2493D02*
X3739Y2491D01*
X3729Y2487D01*
X3720Y2480D01*
X3713Y2471D01*
X3709Y2461D01*
X3707Y2450D01*
X3709Y2439D01*
X3713Y2429D01*
X3720Y2420D01*
X3729Y2413D01*
X3739Y2409D01*
X3750Y2407D01*
X3761Y2409D01*
X3771Y2413D01*
X3780Y2420D01*
X3787Y2429D01*
X3791Y2439D01*
X3793Y2450D01*
X3791Y2461D01*
X3787Y2471D01*
X3780Y2480D01*
X3771Y2487D01*
X3761Y2491D01*
X3750Y2493D01*
D02*
G37*
G36*
X3350Y2593D02*
X3339Y2591D01*
X3329Y2587D01*
X3320Y2580D01*
X3313Y2571D01*
X3309Y2561D01*
X3307Y2550D01*
X3309Y2539D01*
X3313Y2529D01*
X3320Y2520D01*
X3329Y2513D01*
X3339Y2509D01*
X3350Y2507D01*
X3361Y2509D01*
X3371Y2513D01*
X3380Y2520D01*
X3387Y2529D01*
X3391Y2539D01*
X3393Y2550D01*
X3391Y2561D01*
X3387Y2571D01*
X3380Y2580D01*
X3371Y2587D01*
X3361Y2591D01*
X3350Y2593D01*
D02*
G37*
G36*
X3750D02*
X3739Y2591D01*
X3729Y2587D01*
X3720Y2580D01*
X3713Y2571D01*
X3709Y2561D01*
X3707Y2550D01*
X3709Y2539D01*
X3713Y2529D01*
X3720Y2520D01*
X3729Y2513D01*
X3739Y2509D01*
X3750Y2507D01*
X3761Y2509D01*
X3771Y2513D01*
X3780Y2520D01*
X3787Y2529D01*
X3791Y2539D01*
X3793Y2550D01*
X3791Y2561D01*
X3787Y2571D01*
X3780Y2580D01*
X3771Y2587D01*
X3761Y2591D01*
X3750Y2593D01*
D02*
G37*
G36*
X5100Y2493D02*
X5089Y2491D01*
X5079Y2487D01*
X5070Y2480D01*
X5063Y2471D01*
X5059Y2461D01*
X5057Y2450D01*
X5059Y2439D01*
X5063Y2429D01*
X5070Y2420D01*
X5079Y2413D01*
X5089Y2409D01*
X5100Y2407D01*
X5111Y2409D01*
X5121Y2413D01*
X5130Y2420D01*
X5137Y2429D01*
X5141Y2439D01*
X5143Y2450D01*
X5141Y2461D01*
X5137Y2471D01*
X5130Y2480D01*
X5121Y2487D01*
X5111Y2491D01*
X5100Y2493D01*
D02*
G37*
G36*
X6100Y2660D02*
X6091Y2659D01*
X6082Y2656D01*
X6075Y2650D01*
X6069Y2643D01*
X6066Y2634D01*
X6065Y2625D01*
Y2575D01*
X6066Y2566D01*
X6069Y2557D01*
X6075Y2550D01*
X6082Y2544D01*
X6086Y2543D01*
Y2456D01*
X5947Y2317D01*
X5834D01*
X5832Y2322D01*
X5837Y2329D01*
X5841Y2339D01*
X5843Y2350D01*
X5841Y2361D01*
X5837Y2371D01*
X5830Y2380D01*
X5821Y2387D01*
X5811Y2391D01*
X5800Y2393D01*
X5789Y2391D01*
X5779Y2387D01*
X5770Y2380D01*
X5763Y2371D01*
X5759Y2361D01*
X5757Y2350D01*
X5759Y2339D01*
X5763Y2329D01*
X5768Y2322D01*
X5766Y2317D01*
X3784D01*
X3782Y2322D01*
X3787Y2329D01*
X3791Y2339D01*
X3793Y2350D01*
X3791Y2361D01*
X3787Y2371D01*
X3780Y2380D01*
X3771Y2387D01*
X3761Y2391D01*
X3750Y2393D01*
X3739Y2391D01*
X3729Y2387D01*
X3720Y2380D01*
X3713Y2371D01*
X3709Y2361D01*
X3707Y2350D01*
X3709Y2339D01*
X3713Y2329D01*
X3720Y2320D01*
X3722Y2318D01*
X3722Y2313D01*
X3722Y2313D01*
X3590Y2181D01*
X3587Y2176D01*
X3586Y2171D01*
X3586Y2171D01*
Y2160D01*
X3565D01*
Y2040D01*
X3635D01*
Y2160D01*
X3614D01*
Y2165D01*
X3738Y2289D01*
X5953D01*
X5953Y2289D01*
X5958Y2290D01*
X5963Y2293D01*
X6110Y2440D01*
X6110Y2440D01*
X6113Y2445D01*
D01*
D01*
D01*
Y2445D01*
X6113D01*
D01*
D01*
D01*
D01*
X6113D01*
D01*
D01*
D01*
D01*
Y2445D01*
X6113D01*
D01*
Y2445D01*
D01*
D01*
D01*
D01*
D01*
D01*
D01*
D01*
D01*
D01*
D01*
D01*
Y2445D01*
D01*
X6113D01*
D01*
D01*
D01*
D01*
X6113Y2445D01*
X6114Y2450D01*
X6114Y2450D01*
Y2543D01*
X6118Y2544D01*
X6125Y2550D01*
X6131Y2557D01*
X6134Y2566D01*
X6135Y2575D01*
Y2625D01*
X6134Y2634D01*
X6131Y2643D01*
X6125Y2650D01*
X6118Y2656D01*
X6109Y2659D01*
X6100Y2660D01*
D02*
G37*
G36*
X3047Y3007D02*
Y3003D01*
X3039Y3001D01*
X3029Y2997D01*
X3020Y2990D01*
X3013Y2981D01*
X3009Y2971D01*
X3007Y2960D01*
X3009Y2949D01*
X3013Y2939D01*
X3020Y2930D01*
X3029Y2923D01*
X3039Y2919D01*
X3047Y2918D01*
Y2912D01*
X3039Y2911D01*
X3029Y2907D01*
X3020Y2900D01*
X3013Y2891D01*
X3009Y2881D01*
X3007Y2870D01*
X3009Y2859D01*
X3013Y2849D01*
X3020Y2840D01*
X3029Y2833D01*
X3039Y2829D01*
X3047Y2828D01*
Y2822D01*
X3039Y2821D01*
X3029Y2817D01*
X3020Y2810D01*
X3013Y2801D01*
X3009Y2791D01*
X3007Y2780D01*
X3009Y2769D01*
X3013Y2759D01*
X3020Y2750D01*
X3029Y2743D01*
X3039Y2739D01*
X3047Y2737D01*
X3047Y2733D01*
X3007D01*
Y2648D01*
X3092D01*
Y2733D01*
X3053D01*
X3053Y2737D01*
X3061Y2739D01*
X3071Y2743D01*
X3080Y2750D01*
X3087Y2759D01*
X3091Y2769D01*
X3093Y2780D01*
X3091Y2791D01*
X3087Y2801D01*
X3080Y2810D01*
X3071Y2817D01*
X3061Y2821D01*
X3053Y2822D01*
Y2828D01*
X3061Y2829D01*
X3071Y2833D01*
X3080Y2840D01*
X3087Y2849D01*
X3091Y2859D01*
X3093Y2870D01*
X3091Y2881D01*
X3087Y2891D01*
X3080Y2900D01*
X3071Y2907D01*
X3061Y2911D01*
X3053Y2912D01*
Y2918D01*
X3061Y2919D01*
X3071Y2923D01*
X3080Y2930D01*
X3087Y2939D01*
X3091Y2949D01*
X3093Y2960D01*
X3091Y2971D01*
X3087Y2981D01*
X3080Y2990D01*
X3071Y2997D01*
X3061Y3001D01*
X3053Y3003D01*
Y3007D01*
X3050Y3007D01*
X3047Y3007D01*
D02*
G37*
G36*
X2945Y2687D02*
X2939Y2686D01*
X2929Y2682D01*
X2920Y2675D01*
X2913Y2666D01*
X2909Y2656D01*
X2908Y2650D01*
X2945D01*
Y2687D01*
D02*
G37*
G36*
X3750Y2693D02*
X3739Y2691D01*
X3729Y2687D01*
X3720Y2680D01*
X3713Y2671D01*
X3709Y2661D01*
X3707Y2650D01*
X3709Y2639D01*
X3713Y2629D01*
X3720Y2620D01*
X3729Y2613D01*
X3739Y2609D01*
X3750Y2607D01*
X3761Y2609D01*
X3771Y2613D01*
X3780Y2620D01*
X3787Y2629D01*
X3791Y2639D01*
X3793Y2650D01*
X3791Y2661D01*
X3787Y2671D01*
X3780Y2680D01*
X3771Y2687D01*
X3761Y2691D01*
X3750Y2693D01*
D02*
G37*
G36*
X2850Y3093D02*
X2839Y3091D01*
X2829Y3087D01*
X2820Y3080D01*
X2813Y3071D01*
X2809Y3061D01*
X2807Y3050D01*
X2809Y3039D01*
X2813Y3029D01*
X2820Y3020D01*
X2829Y3013D01*
X2839Y3009D01*
X2847Y3007D01*
Y3003D01*
X2839Y3001D01*
X2829Y2997D01*
X2820Y2990D01*
X2813Y2981D01*
X2809Y2971D01*
X2807Y2960D01*
X2809Y2949D01*
X2813Y2939D01*
X2820Y2930D01*
X2829Y2923D01*
X2839Y2919D01*
X2847Y2918D01*
Y2912D01*
X2839Y2911D01*
X2829Y2907D01*
X2820Y2900D01*
X2813Y2891D01*
X2809Y2881D01*
X2807Y2870D01*
X2809Y2859D01*
X2813Y2849D01*
X2820Y2840D01*
X2829Y2833D01*
X2839Y2829D01*
X2847Y2828D01*
Y2822D01*
X2839Y2821D01*
X2829Y2817D01*
X2820Y2810D01*
X2813Y2801D01*
X2809Y2791D01*
X2807Y2780D01*
X2809Y2769D01*
X2813Y2759D01*
X2820Y2750D01*
X2829Y2743D01*
X2839Y2739D01*
X2847Y2737D01*
Y2733D01*
X2839Y2731D01*
X2829Y2727D01*
X2820Y2720D01*
X2813Y2711D01*
X2809Y2701D01*
X2807Y2690D01*
X2809Y2679D01*
X2813Y2669D01*
X2820Y2660D01*
X2829Y2653D01*
X2839Y2649D01*
X2850Y2647D01*
X2861Y2649D01*
X2871Y2653D01*
X2880Y2660D01*
X2887Y2669D01*
X2891Y2679D01*
X2893Y2690D01*
X2891Y2701D01*
X2887Y2711D01*
X2880Y2720D01*
X2871Y2727D01*
X2861Y2731D01*
X2853Y2733D01*
Y2737D01*
X2861Y2739D01*
X2871Y2743D01*
X2880Y2750D01*
X2887Y2759D01*
X2891Y2769D01*
X2893Y2780D01*
X2891Y2791D01*
X2887Y2801D01*
X2880Y2810D01*
X2871Y2817D01*
X2861Y2821D01*
X2853Y2822D01*
Y2828D01*
X2861Y2829D01*
X2871Y2833D01*
X2880Y2840D01*
X2887Y2849D01*
X2891Y2859D01*
X2893Y2870D01*
X2891Y2881D01*
X2887Y2891D01*
X2880Y2900D01*
X2871Y2907D01*
X2861Y2911D01*
X2853Y2912D01*
Y2918D01*
X2861Y2919D01*
X2871Y2923D01*
X2880Y2930D01*
X2887Y2939D01*
X2891Y2949D01*
X2893Y2960D01*
X2891Y2971D01*
X2887Y2981D01*
X2880Y2990D01*
X2871Y2997D01*
X2861Y3001D01*
X2853Y3003D01*
Y3007D01*
X2861Y3009D01*
X2871Y3013D01*
X2880Y3020D01*
X2887Y3029D01*
X2891Y3039D01*
X2893Y3050D01*
X2891Y3061D01*
X2887Y3071D01*
X2880Y3080D01*
X2871Y3087D01*
X2861Y3091D01*
X2850Y3093D01*
D02*
G37*
G36*
X2955Y2687D02*
Y2650D01*
X2992D01*
X2991Y2656D01*
X2987Y2666D01*
X2980Y2675D01*
X2971Y2682D01*
X2961Y2686D01*
X2955Y2687D01*
D02*
G37*
G36*
X2992Y2730D02*
X2955D01*
Y2693D01*
X2961Y2694D01*
X2971Y2698D01*
X2980Y2705D01*
X2987Y2714D01*
X2991Y2724D01*
X2992Y2730D01*
D02*
G37*
G36*
X2945D02*
X2908D01*
X2909Y2724D01*
X2913Y2714D01*
X2920Y2705D01*
X2929Y2698D01*
X2939Y2694D01*
X2945Y2693D01*
Y2730D01*
D02*
G37*
G36*
X4250Y3343D02*
X4239Y3341D01*
X4229Y3337D01*
X4220Y3330D01*
X4213Y3321D01*
X4209Y3311D01*
X4207Y3300D01*
X4209Y3289D01*
X4213Y3279D01*
X4220Y3270D01*
X4229Y3263D01*
X4239Y3259D01*
X4250Y3257D01*
X4261Y3259D01*
X4268Y3262D01*
X4835Y2695D01*
X4835Y2695D01*
X4840Y2692D01*
Y2692D01*
X4840Y2692D01*
D01*
D01*
D01*
X4840D01*
Y2692D01*
D01*
X4840Y2692D01*
X4840Y2692D01*
X4845Y2691D01*
X4845Y2691D01*
X5887D01*
X5916Y2661D01*
X5914Y2657D01*
X5909Y2659D01*
X5900Y2660D01*
X5891Y2659D01*
X5882Y2656D01*
X5875Y2650D01*
X5869Y2643D01*
X5866Y2634D01*
X5865Y2625D01*
Y2575D01*
X5866Y2566D01*
X5869Y2557D01*
X5875Y2550D01*
X5882Y2544D01*
X5891Y2541D01*
X5900Y2540D01*
X5909Y2541D01*
X5918Y2544D01*
X5925Y2550D01*
X5931Y2557D01*
X5934Y2566D01*
X5935Y2575D01*
Y2625D01*
X5934Y2634D01*
X5932Y2639D01*
X5936Y2641D01*
X5941Y2637D01*
Y2546D01*
X5936Y2543D01*
X5932Y2537D01*
X5930Y2531D01*
X5929Y2524D01*
X5930Y2517D01*
X5932Y2511D01*
X5936Y2505D01*
X5942Y2501D01*
X5948Y2499D01*
X5955Y2498D01*
X5962Y2499D01*
X5968Y2501D01*
X5974Y2505D01*
X5978Y2511D01*
X5980Y2517D01*
X5981Y2524D01*
X5980Y2531D01*
X5978Y2537D01*
X5974Y2543D01*
X5969Y2546D01*
Y2550D01*
X5974Y2551D01*
X5975Y2550D01*
X5982Y2544D01*
X5991Y2541D01*
X6000Y2540D01*
X6009Y2541D01*
X6018Y2544D01*
X6025Y2550D01*
X6031Y2557D01*
X6034Y2566D01*
X6035Y2575D01*
Y2625D01*
X6034Y2634D01*
X6031Y2643D01*
X6025Y2650D01*
X6018Y2656D01*
X6009Y2659D01*
X6000Y2660D01*
X5991Y2659D01*
X5982Y2656D01*
X5975Y2650D01*
X5975Y2650D01*
X5968Y2648D01*
X5967Y2650D01*
X5965Y2653D01*
X5965Y2653D01*
X5903Y2715D01*
X5898Y2718D01*
X5893Y2719D01*
X5893Y2719D01*
X4851D01*
X4288Y3282D01*
X4291Y3289D01*
X4293Y3300D01*
X4291Y3311D01*
X4287Y3321D01*
X4280Y3330D01*
X4271Y3337D01*
X4261Y3341D01*
X4250Y3343D01*
D02*
G37*
G36*
X2947Y2692D02*
Y2688D01*
X2950Y2688D01*
X2953Y2688D01*
Y2692D01*
X2950Y2692D01*
X2947Y2692D01*
D02*
G37*
G36*
X3350Y2693D02*
X3339Y2691D01*
X3329Y2687D01*
X3320Y2680D01*
X3313Y2671D01*
X3309Y2661D01*
X3307Y2650D01*
X3309Y2639D01*
X3313Y2629D01*
X3320Y2620D01*
X3329Y2613D01*
X3339Y2609D01*
X3350Y2607D01*
X3361Y2609D01*
X3371Y2613D01*
X3380Y2620D01*
X3387Y2629D01*
X3391Y2639D01*
X3393Y2650D01*
X3391Y2661D01*
X3387Y2671D01*
X3380Y2680D01*
X3371Y2687D01*
X3361Y2691D01*
X3350Y2693D01*
D02*
G37*
G36*
X4835Y2660D02*
X4765D01*
Y2540D01*
X4835D01*
Y2660D01*
D02*
G37*
G36*
X6495Y2595D02*
X6465D01*
Y2575D01*
X6466Y2566D01*
X6469Y2557D01*
X6475Y2550D01*
X6482Y2544D01*
X6491Y2541D01*
X6495Y2540D01*
Y2595D01*
D02*
G37*
G36*
X6600Y2660D02*
X6591Y2659D01*
X6582Y2656D01*
X6575Y2650D01*
X6569Y2643D01*
X6566Y2634D01*
X6565Y2625D01*
Y2575D01*
X6566Y2566D01*
X6569Y2557D01*
X6575Y2550D01*
X6582Y2544D01*
X6591Y2541D01*
X6600Y2540D01*
X6609Y2541D01*
X6618Y2544D01*
X6625Y2550D01*
X6631Y2557D01*
X6634Y2566D01*
X6635Y2575D01*
Y2625D01*
X6634Y2634D01*
X6631Y2643D01*
X6625Y2650D01*
X6618Y2656D01*
X6609Y2659D01*
X6600Y2660D01*
D02*
G37*
G36*
X6700D02*
X6691Y2659D01*
X6682Y2656D01*
X6675Y2650D01*
X6669Y2643D01*
X6666Y2634D01*
X6665Y2625D01*
Y2575D01*
X6666Y2566D01*
X6669Y2557D01*
X6675Y2550D01*
X6682Y2544D01*
X6691Y2541D01*
X6700Y2540D01*
X6709Y2541D01*
X6718Y2544D01*
X6725Y2550D01*
X6731Y2557D01*
X6734Y2566D01*
X6735Y2575D01*
Y2625D01*
X6734Y2634D01*
X6731Y2643D01*
X6725Y2650D01*
X6718Y2656D01*
X6709Y2659D01*
X6700Y2660D01*
D02*
G37*
G36*
X6535Y2595D02*
X6505D01*
Y2540D01*
X6509Y2541D01*
X6518Y2544D01*
X6525Y2550D01*
X6531Y2557D01*
X6534Y2566D01*
X6535Y2575D01*
Y2595D01*
D02*
G37*
G36*
X6495Y2660D02*
X6491Y2659D01*
X6482Y2656D01*
X6475Y2650D01*
X6469Y2643D01*
X6466Y2634D01*
X6465Y2625D01*
Y2605D01*
X6495D01*
Y2660D01*
D02*
G37*
G36*
X6505D02*
Y2605D01*
X6535D01*
Y2625D01*
X6534Y2634D01*
X6531Y2643D01*
X6525Y2650D01*
X6518Y2656D01*
X6509Y2659D01*
X6505Y2660D01*
D02*
G37*
G36*
X2945Y2640D02*
X2908D01*
X2909Y2634D01*
X2913Y2624D01*
X2920Y2615D01*
X2929Y2608D01*
X2939Y2604D01*
X2945Y2603D01*
Y2640D01*
D02*
G37*
G36*
X2992D02*
X2955D01*
Y2603D01*
X2961Y2604D01*
X2971Y2608D01*
X2980Y2615D01*
X2987Y2624D01*
X2991Y2634D01*
X2992Y2640D01*
D02*
G37*
%LPD*%
D10*
X5560Y1160D02*
D03*
X6660D02*
D03*
X6560D02*
D03*
X6460D02*
D03*
X6360D02*
D03*
X6260D02*
D03*
X6160D02*
D03*
X6060D02*
D03*
X5960D02*
D03*
X5860D02*
D03*
X5760D02*
D03*
X5660D02*
D03*
X5460D02*
D03*
X5360D02*
D03*
X5260D02*
D03*
X5160D02*
D03*
X5060D02*
D03*
X4960D02*
D03*
X4860D02*
D03*
X4760D02*
D03*
X4660D02*
D03*
X4560D02*
D03*
X4460D02*
D03*
X4360D02*
D03*
X4260D02*
D03*
D11*
X3680Y3386D02*
X3698Y3404D01*
X6270Y2311D02*
Y2398D01*
X5320Y1936D02*
X6219D01*
X6270Y1987D01*
X5160Y1776D02*
X5320Y1936D01*
X5160Y1160D02*
Y1776D01*
X5315Y1901D02*
X6236D01*
X3896Y1551D02*
Y1552D01*
X5800Y2529D02*
Y2600D01*
X5721Y2450D02*
X5800Y2529D01*
X5500Y2450D02*
X5721D01*
X3600Y2100D02*
Y2171D01*
X3732Y2303D01*
X5953D01*
X5400Y3300D02*
Y3362D01*
X5383Y3379D02*
X5400Y3362D01*
X3779Y3379D02*
X5383D01*
X3736Y3250D02*
X3750D01*
X5508Y3404D02*
X5600Y3312D01*
Y3300D02*
Y3312D01*
X3698Y3404D02*
X5508D01*
X3632Y3426D02*
X5774D01*
X5900Y3300D01*
X3703Y3050D02*
X3750D01*
X3681Y3072D02*
X3703Y3050D01*
X3681Y3072D02*
Y3171D01*
X3751Y3149D02*
X3999D01*
X3750Y3150D02*
X3751Y3149D01*
X5953Y2303D02*
X6100Y2450D01*
Y2600D01*
X2643Y3251D02*
X2856Y3464D01*
X6059D01*
X6152Y3225D02*
Y3371D01*
Y3225D02*
X6200Y3177D01*
Y2600D02*
Y3177D01*
X6059Y3464D02*
X6152Y3371D01*
X4650Y1700D02*
X4760D01*
X4800Y1740D01*
Y1800D01*
X4250Y3300D02*
X4845Y2705D01*
X5260Y1846D02*
X5315Y1901D01*
X5260Y1160D02*
Y1846D01*
X4845Y2705D02*
X5893D01*
X5955Y2643D01*
Y2524D02*
Y2643D01*
X5800Y1600D02*
X6011D01*
X6100Y1689D01*
Y1800D01*
X6300Y2297D02*
Y2600D01*
X6279Y2276D02*
X6300Y2297D01*
X6150Y2276D02*
X6279D01*
X5339Y2024D02*
X6150D01*
X5215Y1900D02*
X5339Y2024D01*
X4840Y1900D02*
X5215D01*
X4800Y1860D02*
X4840Y1900D01*
X4800Y1800D02*
Y1860D01*
X3400Y1668D02*
Y1800D01*
X3373Y1641D02*
X3400Y1668D01*
X3298Y1641D02*
X3373D01*
X3252Y1687D02*
X3298Y1641D01*
X3252Y1687D02*
Y1851D01*
X3320Y1919D01*
X4204D01*
X4249Y1874D01*
Y1660D02*
Y1874D01*
Y1660D02*
X4338Y1571D01*
X4950D01*
X5060Y1461D01*
Y1160D02*
Y1461D01*
X4860Y1160D02*
Y1454D01*
X4780Y1533D02*
X4860Y1454D01*
X3200Y1581D02*
X3247Y1533D01*
X3200Y1581D02*
Y1800D01*
X2900Y1547D02*
Y1800D01*
Y1547D02*
X2967Y1480D01*
X4520D02*
X4560Y1439D01*
Y1160D02*
Y1439D01*
X3000Y1545D02*
Y1800D01*
Y1545D02*
X3047Y1497D01*
X4608D02*
X4660Y1445D01*
Y1160D02*
Y1445D01*
X2800Y1509D02*
Y1800D01*
Y1509D02*
X2848Y1462D01*
X4400D02*
X4460Y1401D01*
Y1160D02*
Y1401D01*
X4760Y1160D02*
Y1453D01*
X4698Y1515D02*
X4760Y1453D01*
X3100Y1583D02*
X3168Y1515D01*
X3100Y1583D02*
Y1800D01*
X3711Y3201D02*
X4001D01*
X3681Y3171D02*
X3711Y3201D01*
X6200Y2450D02*
X6254Y2504D01*
Y2649D01*
X6276Y2671D01*
X6324D01*
X6350Y2645D01*
Y2181D02*
Y2645D01*
X6300Y2131D02*
X6350Y2181D01*
X6300Y1769D02*
Y1939D01*
X5980Y1449D02*
X6300Y1769D01*
X5980Y1379D02*
Y1449D01*
X3325Y1887D02*
X3777D01*
X3896Y1551D02*
X4870D01*
X4960Y1461D01*
Y1160D02*
Y1461D01*
X4360Y1160D02*
Y1403D01*
X4320Y1444D02*
X4360Y1403D01*
X2767Y1444D02*
X4320D01*
X2700Y1511D02*
X2767Y1444D01*
X2700Y1511D02*
Y1800D01*
X3750Y3350D02*
X3779Y3379D01*
X2848Y1462D02*
X4400D01*
X2967Y1480D02*
X4520D01*
X3047Y1497D02*
X4608D01*
X3168Y1515D02*
X4698D01*
X3247Y1533D02*
X4780D01*
X3300Y1862D02*
X3325Y1887D01*
X3300Y1800D02*
Y1862D01*
X3777Y1887D02*
X3857Y1807D01*
Y1591D02*
Y1807D01*
Y1591D02*
X3896Y1552D01*
D12*
X6058Y2242D02*
X6200Y2100D01*
X4900Y2040D02*
X4940Y2000D01*
X4900Y2040D02*
Y2042D01*
Y2022D02*
Y2040D01*
X6250Y2100D02*
X6350Y2000D01*
X6200Y2100D02*
X6250D01*
X5364Y2242D02*
X6058D01*
X5300Y2178D02*
X5364Y2242D01*
X5300Y2100D02*
Y2178D01*
Y2040D02*
Y2100D01*
X5260Y2000D02*
X5300Y2040D01*
X5050Y2000D02*
X5260D01*
X4940D02*
X5050D01*
X4900Y2042D02*
Y2100D01*
X4041Y2001D02*
X4879D01*
X4000Y2042D02*
Y2100D01*
Y2042D02*
Y2100D01*
Y2042D02*
X4001Y2041D01*
X3750Y2000D02*
X3960D01*
X6660Y1460D02*
X6750Y1550D01*
X6700Y1600D02*
X6750Y1550D01*
X6429Y1600D02*
X6700D01*
X2740Y2000D02*
X3750D01*
X2700Y2040D02*
X2740Y2000D01*
X2700Y2040D02*
Y2100D01*
Y2320D01*
X2748Y2368D01*
X2950D01*
Y3005D02*
X2995Y3050D01*
X3050D01*
X3960Y2000D02*
X4001Y2041D01*
X4041Y2001D01*
X4000Y2042D02*
X4001Y2041D01*
X4879Y2001D02*
X4900Y2022D01*
Y2040D02*
Y2042D01*
Y2100D01*
X2950Y3005D02*
Y3352D01*
Y3005D02*
X3000Y2955D01*
Y2875D02*
Y2955D01*
X2950Y2825D02*
X3000Y2875D01*
X2950Y2735D02*
Y2825D01*
Y2645D02*
Y2735D01*
Y2368D02*
Y2645D01*
X6461Y1632D02*
Y1889D01*
X6429Y1600D02*
X6461Y1632D01*
X6511Y2230D02*
X6750D01*
X6350Y2000D02*
X6461Y1889D01*
X6350Y2000D02*
Y2069D01*
X6500Y2225D02*
Y2600D01*
X6350Y2069D02*
X6503Y2222D01*
X6511Y2230D01*
X6500Y2225D02*
X6503Y2222D01*
X5153Y2747D02*
X6067D01*
X4900Y3000D02*
X5153Y2747D01*
X4900Y3000D02*
Y3300D01*
D14*
X5500Y2450D02*
D03*
X5100D02*
D03*
X5800D02*
D03*
X6200D02*
D03*
X4650Y3300D02*
D03*
X4250D02*
D03*
X3350Y2850D02*
D03*
X3750D02*
D03*
X3350Y2450D02*
D03*
X3750D02*
D03*
Y2350D02*
D03*
X3350D02*
D03*
X3750Y2550D02*
D03*
X3350D02*
D03*
X3750Y2750D02*
D03*
X3350D02*
D03*
X3750Y2650D02*
D03*
X3350D02*
D03*
X3750Y2950D02*
D03*
X3350D02*
D03*
X3750Y3050D02*
D03*
X3350D02*
D03*
X3750Y3150D02*
D03*
X3350D02*
D03*
X3750Y3250D02*
D03*
Y3350D02*
D03*
Y1700D02*
D03*
X3350D02*
D03*
X5050D02*
D03*
X6200Y1600D02*
D03*
X3350Y3350D02*
D03*
Y3250D02*
D03*
X2950Y3005D02*
D03*
Y2915D02*
D03*
Y2825D02*
D03*
Y2735D02*
D03*
X3050Y2960D02*
D03*
Y2870D02*
D03*
Y2780D02*
D03*
X2950Y2645D02*
D03*
X2850Y2690D02*
D03*
Y2780D02*
D03*
Y2870D02*
D03*
Y2960D02*
D03*
Y3050D02*
D03*
X5800Y1600D02*
D03*
X4650Y1700D02*
D03*
X3050Y3050D02*
D03*
X6200Y2350D02*
D03*
X5800D02*
D03*
D15*
X6750Y2230D02*
D03*
D16*
X6650Y1550D02*
D03*
D17*
X6750D02*
D03*
X6850D02*
D03*
D18*
X6429Y1600D02*
D03*
D19*
X6350D02*
D03*
D20*
X5050Y1800D02*
D03*
Y2000D02*
D03*
X6350Y1800D02*
D03*
Y2000D02*
D03*
X3750D02*
D03*
Y1800D02*
D03*
D21*
X2950Y2368D02*
D03*
Y3352D02*
D03*
D22*
X3050Y2690D02*
D03*
D23*
X2700Y1800D02*
D03*
X2800D02*
D03*
X2900D02*
D03*
X3000D02*
D03*
X3100D02*
D03*
X3200D02*
D03*
X3300D02*
D03*
X3400D02*
D03*
X3500D02*
D03*
X3600D02*
D03*
X2700Y2100D02*
D03*
X2800D02*
D03*
X2900D02*
D03*
X3000D02*
D03*
X3100D02*
D03*
X3200D02*
D03*
X3300D02*
D03*
X3400D02*
D03*
X3500D02*
D03*
X4000Y1800D02*
D03*
X4100D02*
D03*
X4200D02*
D03*
X4300D02*
D03*
X4400D02*
D03*
X4500D02*
D03*
X4600D02*
D03*
X4700D02*
D03*
X4900D02*
D03*
X4000Y2100D02*
D03*
X4100D02*
D03*
X4200D02*
D03*
X4300D02*
D03*
X4400D02*
D03*
X4500D02*
D03*
X4600D02*
D03*
X4700D02*
D03*
X4800D02*
D03*
X5300Y1800D02*
D03*
X5400D02*
D03*
X5500D02*
D03*
X5600D02*
D03*
X5700D02*
D03*
X5800D02*
D03*
X5900D02*
D03*
X6000D02*
D03*
X6200D02*
D03*
X5300Y2100D02*
D03*
X5400D02*
D03*
X5500D02*
D03*
X5600D02*
D03*
X5700D02*
D03*
X5800D02*
D03*
X5900D02*
D03*
X6000D02*
D03*
X6100D02*
D03*
Y1800D02*
D03*
X4800D02*
D03*
X6300Y2600D02*
D03*
X6400D02*
D03*
X6700Y3300D02*
D03*
X6600D02*
D03*
X6500D02*
D03*
X6400D02*
D03*
X6300D02*
D03*
X6200D02*
D03*
X6100D02*
D03*
X6000D02*
D03*
X5900D02*
D03*
X5800D02*
D03*
X5700D02*
D03*
X5600D02*
D03*
X5500D02*
D03*
X5400D02*
D03*
X5300D02*
D03*
X5200D02*
D03*
X5100D02*
D03*
X5000D02*
D03*
X4900D02*
D03*
X4800D02*
D03*
X6700Y2600D02*
D03*
X6600D02*
D03*
X6500D02*
D03*
X6200D02*
D03*
X6100D02*
D03*
X6000D02*
D03*
X5900D02*
D03*
X5800D02*
D03*
X5700D02*
D03*
X5600D02*
D03*
X5500D02*
D03*
X5400D02*
D03*
X5300D02*
D03*
X5200D02*
D03*
X5100D02*
D03*
X5000D02*
D03*
X4900D02*
D03*
D24*
X3600Y2100D02*
D03*
X4900D02*
D03*
X6200D02*
D03*
X4800Y2600D02*
D03*
D25*
X3680Y3386D02*
D03*
X3632Y3426D02*
D03*
X6270Y2398D02*
D03*
Y2311D02*
D03*
Y1987D02*
D03*
X4001Y3201D02*
D03*
X3999Y3149D02*
D03*
X2643Y3251D02*
D03*
X6067Y2747D02*
D03*
X5955Y2524D02*
D03*
X6236Y1901D02*
D03*
X6150Y2276D02*
D03*
Y2024D02*
D03*
X6300Y2131D02*
D03*
Y1939D02*
D03*
X5980Y1379D02*
D03*
D26*
X6660Y1160D02*
Y1460D01*
M02*
