%FSLAX23Y23*%
%MOIN*%
G70*
G01*
G75*
G04 Layer_Physical_Order=1*
G04 Layer_Color=255*
%ADD10R,0.050X0.300*%
%ADD11C,0.008*%
%ADD12C,0.015*%
%ADD13C,0.030*%
%ADD14C,0.065*%
G04:AMPARAMS|DCode=15|XSize=450mil|YSize=400mil|CornerRadius=20mil|HoleSize=0mil|Usage=FLASHONLY|Rotation=0.000|XOffset=0mil|YOffset=0mil|HoleType=Round|Shape=RoundedRectangle|*
%AMROUNDEDRECTD15*
21,1,0.450,0.360,0,0,0.0*
21,1,0.410,0.400,0,0,0.0*
1,1,0.040,0.205,-0.180*
1,1,0.040,-0.205,-0.180*
1,1,0.040,-0.205,0.180*
1,1,0.040,0.205,0.180*
%
%ADD15ROUNDEDRECTD15*%
%ADD16R,0.063X0.063*%
%ADD17C,0.063*%
%ADD18C,0.059*%
%ADD19R,0.059X0.059*%
%ADD20C,0.066*%
%ADD21C,0.188*%
%ADD22R,0.065X0.065*%
%ADD23O,0.050X0.100*%
%ADD24R,0.050X0.100*%
%ADD25C,0.032*%
D10*
X6660Y1160D02*
D03*
X6560D02*
D03*
X6460D02*
D03*
X6360D02*
D03*
X6260D02*
D03*
X6160D02*
D03*
X6060D02*
D03*
X5960D02*
D03*
X5860D02*
D03*
X5760D02*
D03*
X5660D02*
D03*
X5560D02*
D03*
X5460D02*
D03*
X5360D02*
D03*
X5260D02*
D03*
X5160D02*
D03*
X5060D02*
D03*
X4960D02*
D03*
X4860D02*
D03*
X4760D02*
D03*
X4660D02*
D03*
X4560D02*
D03*
X4460D02*
D03*
X4360D02*
D03*
X4260D02*
D03*
D11*
X3210Y2690D02*
X3350Y2550D01*
X3680Y3306D02*
Y3386D01*
Y3306D02*
X3736Y3250D01*
X3632Y2416D02*
Y3426D01*
Y2416D02*
X3698Y2350D01*
X3750D01*
X3050Y2690D02*
X3210D01*
X3080Y2750D02*
X3350D01*
X3050Y2780D02*
X3080Y2750D01*
X3050Y2870D02*
X3130Y2950D01*
X3350D01*
X5100Y2450D02*
X5146Y2496D01*
Y2688D01*
X5245Y2787D01*
X6141D01*
X6252Y2676D01*
Y2416D02*
Y2676D01*
Y2416D02*
X6270Y2398D01*
Y1987D02*
Y2311D01*
X3999Y3150D02*
X6416D01*
X5585Y2402D02*
X5893Y2093D01*
X5897Y2090D01*
X5900D01*
X6453Y2024D02*
X6896Y1581D01*
X4001Y3201D02*
X6407D01*
X6000Y2100D02*
Y2159D01*
Y1950D02*
Y2100D01*
X5897Y2090D02*
Y2097D01*
Y2090D02*
X5900Y2087D01*
X5440Y2402D02*
X5585D01*
X5400Y2442D02*
Y2600D01*
X4100Y2100D02*
Y2240D01*
Y2056D02*
Y2100D01*
X5048Y2548D02*
X5100Y2600D01*
X3500Y1990D02*
Y2100D01*
Y1990D02*
X3590Y1900D01*
X4700D01*
X4800Y2000D01*
Y2100D01*
X3400Y2160D02*
X3420Y2180D01*
X3777D01*
X3816Y2141D01*
Y2035D02*
X3931Y1920D01*
X4620D01*
X4700Y2000D01*
Y2100D01*
X4520Y1940D02*
X4600Y2020D01*
X3937Y1940D02*
X4520D01*
X3836Y2041D02*
X3937Y1940D01*
X3836Y2041D02*
Y2147D01*
X3320Y2200D02*
X3783D01*
X3300Y2180D02*
X3320Y2200D01*
X3300Y2100D02*
Y2180D01*
X3400Y2100D02*
Y2160D01*
X3200Y2100D02*
Y2180D01*
X3240Y2220D01*
X3789D01*
X3854Y2155D01*
Y2049D02*
Y2155D01*
Y2049D02*
X3943Y1960D01*
X4450D01*
X4500Y2010D02*
Y2100D01*
X4450Y1960D02*
X4500Y2010D01*
X3100Y2100D02*
Y2190D01*
X3150Y2240D01*
X3872Y2056D02*
Y2163D01*
Y2056D02*
X3950Y1978D01*
X4358D01*
X4400Y2020D01*
Y2100D01*
X3000D02*
Y2115D01*
X3145Y2260D01*
X3801D01*
X3890Y2171D01*
Y2064D02*
Y2171D01*
Y2064D02*
X3958Y1996D01*
X4266D01*
X4300Y2030D01*
Y2100D01*
X2900D02*
X3080Y2280D01*
X3807D01*
X3908Y2179D01*
Y2072D02*
X3966Y2014D01*
X4174D01*
X4200Y2040D01*
Y2100D01*
X3908Y2072D02*
Y2179D01*
X3795Y2240D02*
X3872Y2163D01*
X3150Y2240D02*
X3795D01*
X3030Y2260D02*
X3070Y2300D01*
X2800Y2100D02*
X2960Y2260D01*
X3030D01*
X3070Y2300D02*
X3813D01*
X3926Y2187D01*
Y2080D02*
Y2187D01*
Y2080D02*
X3974Y2032D01*
X4076D01*
X4100Y2056D01*
X4800Y1934D02*
X4843Y1891D01*
X6051D01*
X6100Y1940D01*
Y2100D01*
X4700D02*
Y2160D01*
X4720Y2180D01*
X5047D01*
X5122Y2105D01*
Y1999D02*
Y2105D01*
Y1999D02*
X5211Y1910D01*
X5960D01*
X6000Y1950D01*
X4600Y2160D02*
X4640Y2200D01*
X5053D01*
X5141Y2112D01*
Y2006D02*
X5217Y1930D01*
X5850D01*
X5900Y1980D01*
Y2087D01*
X5141Y2006D02*
Y2112D01*
X4500Y2180D02*
X4538Y2218D01*
X5062D01*
X4500Y2100D02*
Y2180D01*
X5062Y2218D02*
X5159Y2121D01*
Y2015D02*
Y2121D01*
Y2015D02*
X5224Y1950D01*
X5750D02*
X5800Y2000D01*
Y2100D01*
X4400D02*
Y2190D01*
X4446Y2236D01*
X5071D01*
X5177Y2023D02*
Y2130D01*
Y2023D02*
X5230Y1970D01*
X5660D01*
X5700Y2010D01*
Y2100D01*
X5071Y2236D02*
X5177Y2130D01*
X4300Y2100D02*
Y2210D01*
X4344Y2254D01*
X5079D01*
X5195Y2031D02*
Y2138D01*
Y2031D02*
X5236Y1990D01*
X5570D02*
X5600Y2020D01*
Y2100D01*
X5236Y1990D02*
X5570D01*
X4200Y2100D02*
Y2230D01*
X4242Y2272D01*
X5089D01*
X5213Y2148D01*
Y2038D02*
X5241Y2010D01*
X5470D01*
X5500Y2040D01*
Y2100D01*
X5213Y2038D02*
Y2148D01*
X5224Y1950D02*
X5750D01*
X5328Y2028D02*
X5400Y2100D01*
X5249Y2028D02*
X5328D01*
X5231Y2046D02*
X5249Y2028D01*
X5231Y2046D02*
Y2156D01*
X5097Y2290D02*
X5231Y2156D01*
X4150Y2290D02*
X5097D01*
X4100Y2240D02*
X4150Y2290D01*
X4600Y2020D02*
Y2100D01*
Y2160D01*
X2758Y3002D02*
X2800Y2960D01*
X2758Y3002D02*
Y3108D01*
X2844Y3194D01*
X3064D01*
X3120Y3250D01*
X2779Y2870D02*
X2850D01*
X2740Y2909D02*
X2779Y2870D01*
X2740Y2909D02*
Y3116D01*
X2837Y3213D01*
X3048D01*
X3185Y3350D01*
X3350D01*
X2800Y2960D02*
X2850D01*
X2660Y1700D02*
X3350D01*
X2643Y1717D02*
X2660Y1700D01*
X4800Y1934D02*
Y2000D01*
Y2349D02*
Y2600D01*
Y2349D02*
X4845Y2304D01*
X5360D01*
X5400Y2264D01*
Y2100D02*
Y2264D01*
X4900Y2364D02*
Y2600D01*
X4942Y2322D02*
X5440D01*
X5500Y2262D01*
Y2100D02*
Y2262D01*
X4900Y2364D02*
X4942Y2322D01*
X5048Y2402D02*
Y2548D01*
X5110Y2340D02*
X5503D01*
X5600Y2243D01*
Y2100D02*
Y2243D01*
X5048Y2402D02*
X5110Y2340D01*
X5200Y2386D02*
Y2600D01*
X5228Y2358D02*
X5511D01*
X5700Y2169D01*
Y2100D02*
Y2169D01*
X5200Y2386D02*
X5228Y2358D01*
X5300Y2416D02*
Y2600D01*
Y2416D02*
X5336Y2380D01*
X5520D01*
X5800Y2100D01*
X5600Y2419D02*
Y2600D01*
Y2419D02*
X5836Y2183D01*
X5976D01*
X6000Y2159D01*
X5700Y2358D02*
Y2600D01*
Y2358D02*
X5838Y2220D01*
X6074D01*
X6100Y2194D01*
Y2100D02*
Y2194D01*
X5749Y2401D02*
X5800Y2350D01*
X5749Y2401D02*
Y2549D01*
X5800Y2600D01*
X5900Y2550D02*
Y2600D01*
X5800Y2450D02*
X5900Y2550D01*
X3821Y2950D02*
X3838Y2967D01*
Y3332D01*
X3987Y3481D01*
X6640D01*
X6700Y3421D01*
Y3300D02*
Y3421D01*
X3829Y2850D02*
X3858Y2879D01*
Y3326D01*
X3995Y3463D01*
X6511D01*
X6600Y3374D01*
Y3300D02*
Y3374D01*
X3750Y2750D02*
X3844D01*
X3876Y2782D01*
Y3318D01*
X4003Y3445D01*
X6356D01*
X6400Y3401D01*
Y3300D02*
Y3401D01*
X3750Y2650D02*
X3858D01*
X3901Y2693D01*
Y3317D01*
X4011Y3427D01*
X6251D01*
X6300Y3378D01*
Y3300D02*
Y3378D01*
X3750Y2550D02*
X3866D01*
X3928Y2612D01*
Y3318D01*
X4017Y3407D01*
X6176D01*
X6200Y3383D01*
Y3300D02*
Y3383D01*
X3750Y2450D02*
X3879D01*
X3958Y2529D01*
Y3320D01*
X4016Y3378D01*
X6022D01*
X6100Y3300D01*
X6600Y2600D02*
Y2966D01*
X6416Y3150D02*
X6600Y2966D01*
X6407Y3201D02*
X6700Y2908D01*
Y2600D02*
Y2908D01*
X2643Y1717D02*
Y3251D01*
Y3252D01*
X3999Y3149D02*
Y3150D01*
X3350Y1700D02*
X3475D01*
X3500Y1725D01*
Y1800D01*
X4650Y3300D02*
X4726Y3224D01*
X5667D01*
X5694Y3251D01*
Y3294D01*
X5700Y3300D01*
X5955Y2524D02*
X6239Y2240D01*
Y1901D02*
Y2240D01*
X6100Y1545D02*
Y1800D01*
Y1545D02*
X6153Y1492D01*
X6240D01*
X6283Y1535D01*
Y1630D01*
X6318Y1665D02*
X6652D01*
X6700Y1617D01*
Y1524D02*
Y1617D01*
Y1524D02*
X6720Y1504D01*
X6880D01*
X6896Y1520D01*
Y1581D01*
X6453Y2024D02*
Y2547D01*
X6400Y2600D02*
X6453Y2547D01*
X6283Y1630D02*
X6318Y1665D01*
X6150Y2024D02*
Y2276D01*
X3350Y2950D02*
Y3050D01*
Y3150D01*
Y2750D02*
Y2850D01*
Y2650D02*
Y2750D01*
Y2350D02*
Y2450D01*
Y2550D01*
X3120Y3250D02*
X3350D01*
X5160Y1499D02*
X5300Y1639D01*
X5160Y1160D02*
Y1499D01*
X5400Y1642D02*
Y1800D01*
X5260Y1502D02*
X5400Y1642D01*
X5260Y1160D02*
Y1502D01*
X5500Y1643D02*
Y1800D01*
X5360Y1503D02*
X5500Y1643D01*
X5360Y1160D02*
Y1503D01*
X5600Y1638D02*
Y1800D01*
X5460Y1498D02*
X5600Y1638D01*
X5460Y1160D02*
Y1498D01*
X5800Y1666D02*
Y1800D01*
X5660Y1160D02*
Y1526D01*
X5560Y1160D02*
Y1500D01*
X5700Y1640D01*
Y1800D01*
X5760Y1160D02*
Y1494D01*
X5900Y1634D01*
Y1800D01*
X6000Y1638D02*
Y1800D01*
X5860Y1498D02*
X6000Y1638D01*
X5860Y1160D02*
Y1498D01*
X4760Y1160D02*
Y1395D01*
X4661Y1494D02*
X4760Y1395D01*
X4505Y1494D02*
X4661D01*
X4400Y1599D02*
X4505Y1494D01*
X4400Y1599D02*
Y1800D01*
X4660Y1160D02*
Y1399D01*
X4583Y1476D02*
X4660Y1399D01*
X4420Y1476D02*
X4583D01*
X4300Y1596D02*
X4420Y1476D01*
X4300Y1596D02*
Y1800D01*
X4860Y1160D02*
Y1397D01*
X4745Y1512D02*
X4860Y1397D01*
X4584Y1512D02*
X4745D01*
X4500Y1596D02*
X4584Y1512D01*
X4500Y1596D02*
Y1800D01*
X4560Y1160D02*
Y1402D01*
X4506Y1456D02*
X4560Y1402D01*
X4342Y1456D02*
X4506D01*
X4200Y1598D02*
X4342Y1456D01*
X4200Y1598D02*
Y1800D01*
X4960Y1160D02*
Y1397D01*
X4824Y1533D02*
X4960Y1397D01*
X4665Y1533D02*
X4824D01*
X4600Y1598D02*
X4665Y1533D01*
X4600Y1598D02*
Y1800D01*
X5060Y1160D02*
Y1400D01*
X4909Y1551D02*
X5060Y1400D01*
X4748Y1551D02*
X4909D01*
X4700Y1599D02*
X4748Y1551D01*
X4700Y1599D02*
Y1800D01*
X4360Y1160D02*
Y1399D01*
X4342Y1417D02*
X4360Y1399D01*
X4178Y1417D02*
X4342D01*
X4000Y1595D02*
X4178Y1417D01*
X4000Y1595D02*
Y1800D01*
X4460Y1160D02*
Y1401D01*
X4426Y1435D02*
X4460Y1401D01*
X4262Y1435D02*
X4426D01*
X4100Y1597D02*
X4262Y1435D01*
X4100Y1597D02*
Y1800D01*
X5400Y2442D02*
X5440Y2402D01*
X5900Y2090D02*
Y2100D01*
X6300Y1939D02*
Y2131D01*
X5960Y1359D02*
X5980Y1379D01*
X5960Y1160D02*
Y1359D01*
X5300Y1639D02*
Y1800D01*
X3783Y2200D02*
X3836Y2147D01*
X3816Y2035D02*
Y2141D01*
X5660Y1526D02*
X5800Y1666D01*
X5079Y2254D02*
X5195Y2138D01*
X3750Y2850D02*
X3829D01*
X3750Y2950D02*
X3821D01*
D12*
X6200Y2350D02*
X6387D01*
X6200Y2343D02*
X6205D01*
X6199Y2349D02*
X6200Y2348D01*
X6150Y2398D02*
X6199Y2349D01*
X6200Y2348D02*
X6205Y2343D01*
X6200Y2348D02*
Y2350D01*
Y2343D02*
Y2348D01*
X6650Y1550D02*
X6660Y1540D01*
X6400Y1550D02*
X6650D01*
X6350Y1600D02*
X6400Y1550D01*
X3750Y1700D02*
Y1800D01*
X5050Y1700D02*
Y1800D01*
X4900D02*
Y1840D01*
X6200Y1600D02*
Y1800D01*
X6600D02*
X6850Y1550D01*
X6350Y1800D02*
X6600D01*
X6414Y1864D02*
Y2323D01*
X6200Y1800D02*
X6350D01*
X3818Y1868D02*
X4873D01*
X3750Y1800D02*
X3818Y1868D01*
X3600Y1800D02*
X3750D01*
X5118Y1868D02*
X6188D01*
X6350Y1800D02*
X6414Y1864D01*
X6387Y2350D02*
X6414Y2323D01*
X6200Y1800D02*
Y1856D01*
X4900Y1800D02*
Y1840D01*
X6150Y2398D02*
Y2664D01*
X6067Y2747D02*
X6150Y2664D01*
X4900Y1800D02*
Y1840D01*
Y1800D02*
X5050D01*
X5118Y1868D01*
X6188D02*
X6200Y1856D01*
X4873Y1868D02*
X4900Y1841D01*
Y1800D02*
Y1841D01*
D13*
X6660Y1160D02*
Y1540D01*
D14*
X5500Y2450D02*
D03*
X5100D02*
D03*
X5800D02*
D03*
X6200D02*
D03*
X4650Y3300D02*
D03*
X4250D02*
D03*
X3350Y2850D02*
D03*
X3750D02*
D03*
X3350Y2450D02*
D03*
X3750D02*
D03*
Y2350D02*
D03*
X3350D02*
D03*
X3750Y2550D02*
D03*
X3350D02*
D03*
X3750Y2750D02*
D03*
X3350D02*
D03*
X3750Y2650D02*
D03*
X3350D02*
D03*
X3750Y2950D02*
D03*
X3350D02*
D03*
X3750Y3050D02*
D03*
X3350D02*
D03*
X3750Y3150D02*
D03*
X3350D02*
D03*
X3750Y3250D02*
D03*
Y3350D02*
D03*
Y1700D02*
D03*
X3350D02*
D03*
X5050D02*
D03*
X6200Y1600D02*
D03*
X3350Y3350D02*
D03*
Y3250D02*
D03*
X2950Y3005D02*
D03*
Y2915D02*
D03*
Y2825D02*
D03*
Y2735D02*
D03*
X3050Y2960D02*
D03*
Y2870D02*
D03*
Y2780D02*
D03*
X2950Y2645D02*
D03*
X2850Y2690D02*
D03*
Y2780D02*
D03*
Y2870D02*
D03*
Y2960D02*
D03*
Y3050D02*
D03*
X5800Y1600D02*
D03*
X4650Y1700D02*
D03*
X3050Y3050D02*
D03*
X6200Y2350D02*
D03*
X5800D02*
D03*
D15*
X6750Y2230D02*
D03*
D16*
X6650Y1550D02*
D03*
D17*
X6750D02*
D03*
X6850D02*
D03*
D18*
X6429Y1600D02*
D03*
D19*
X6350D02*
D03*
D20*
X5050Y1800D02*
D03*
Y2000D02*
D03*
X6350Y1800D02*
D03*
Y2000D02*
D03*
X3750D02*
D03*
Y1800D02*
D03*
D21*
X2950Y2368D02*
D03*
Y3352D02*
D03*
D22*
X3050Y2690D02*
D03*
D23*
X2700Y1800D02*
D03*
X2800D02*
D03*
X2900D02*
D03*
X3000D02*
D03*
X3100D02*
D03*
X3200D02*
D03*
X3300D02*
D03*
X3400D02*
D03*
X3500D02*
D03*
X3600D02*
D03*
X2700Y2100D02*
D03*
X2800D02*
D03*
X2900D02*
D03*
X3000D02*
D03*
X3100D02*
D03*
X3200D02*
D03*
X3300D02*
D03*
X3400D02*
D03*
X3500D02*
D03*
X4000Y1800D02*
D03*
X4100D02*
D03*
X4200D02*
D03*
X4300D02*
D03*
X4400D02*
D03*
X4500D02*
D03*
X4600D02*
D03*
X4700D02*
D03*
X4900D02*
D03*
X4000Y2100D02*
D03*
X4100D02*
D03*
X4200D02*
D03*
X4300D02*
D03*
X4400D02*
D03*
X4500D02*
D03*
X4600D02*
D03*
X4700D02*
D03*
X4800D02*
D03*
X5300Y1800D02*
D03*
X5400D02*
D03*
X5500D02*
D03*
X5600D02*
D03*
X5700D02*
D03*
X5800D02*
D03*
X5900D02*
D03*
X6000D02*
D03*
X6200D02*
D03*
X5300Y2100D02*
D03*
X5400D02*
D03*
X5500D02*
D03*
X5600D02*
D03*
X5700D02*
D03*
X5800D02*
D03*
X5900D02*
D03*
X6000D02*
D03*
X6100D02*
D03*
Y1800D02*
D03*
X4800D02*
D03*
X6300Y2600D02*
D03*
X6400D02*
D03*
X6700Y3300D02*
D03*
X6600D02*
D03*
X6500D02*
D03*
X6400D02*
D03*
X6300D02*
D03*
X6200D02*
D03*
X6100D02*
D03*
X6000D02*
D03*
X5900D02*
D03*
X5800D02*
D03*
X5700D02*
D03*
X5600D02*
D03*
X5500D02*
D03*
X5400D02*
D03*
X5300D02*
D03*
X5200D02*
D03*
X5100D02*
D03*
X5000D02*
D03*
X4900D02*
D03*
X4800D02*
D03*
X6700Y2600D02*
D03*
X6600D02*
D03*
X6500D02*
D03*
X6200D02*
D03*
X6100D02*
D03*
X6000D02*
D03*
X5900D02*
D03*
X5800D02*
D03*
X5700D02*
D03*
X5600D02*
D03*
X5500D02*
D03*
X5400D02*
D03*
X5300D02*
D03*
X5200D02*
D03*
X5100D02*
D03*
X5000D02*
D03*
X4900D02*
D03*
D24*
X3600Y2100D02*
D03*
X4900D02*
D03*
X6200D02*
D03*
X4800Y2600D02*
D03*
D25*
X3680Y3386D02*
D03*
X3632Y3426D02*
D03*
X6270Y2398D02*
D03*
Y2311D02*
D03*
Y1987D02*
D03*
X4001Y3201D02*
D03*
X3999Y3149D02*
D03*
X2643Y3251D02*
D03*
X6067Y2747D02*
D03*
X5955Y2524D02*
D03*
X6236Y1901D02*
D03*
X6150Y2276D02*
D03*
Y2024D02*
D03*
X6300Y2131D02*
D03*
Y1939D02*
D03*
X5980Y1379D02*
D03*
M02*
