M48
;Layer_Color=134408
;FILE_FORMAT=2:3
INCH,LZ
;TYPE=PLATED
T1F00S00C0.015
T2F00S00C0.016
T3F00S00C0.028
T4F00S00C0.029
T5F00S00C0.033
T6F00S00C0.035
T7F00S00C0.039
T8F00S00C0.043
T9F00S00C0.047
T10F00S00C0.125
T11F00S00C0.128
%
T01
X0598Y01379
X063Y01939
Y02131
X0615Y02024
X06236Y01901
X0615Y02276
X05955Y02524
X06067Y02747
T02
X0627Y01987
Y02311
Y02398
X02643Y03251
X03632Y03426
X0368Y03386
X04001Y03201
X03999Y03149
T03
X0635Y016
X06429
T04
X047Y018
X048
X049
Y021
X048
X047
X053
X054
X055
X056
X057
X058
X059
X06
X061
X062
Y018
X061
X06
X059
X058
X057
X056
X055
X054
X053
X046
X045
X044
X043
X042
X041
X04
Y021
X041
X042
X043
X044
X045
X046
X036
X035
X034
X033
X032
Y018
X033
X034
X035
X036
X031
X03
X029
X028
X027
Y021
X028
X029
X03
X031
T05
X0635Y018
Y02
X062Y0235
Y0245
X058
Y0235
X055Y0245
X051
X0505Y02
Y018
Y017
X058Y016
X062
X0465Y017
X0375
Y018
Y02
Y0235
Y0245
Y0255
Y0265
Y0275
Y0285
Y0295
Y0305
X0335
Y0295
Y0285
Y0275
Y0265
Y0255
Y0245
Y0235
Y017
Y0315
Y0325
Y0335
X0375
Y0325
Y0315
X0425Y033
X0465
T06
X063Y026
X064
X065
X066
X067
X062
X061
X06
X059
X058
X057
X056
X055
X054
X053
X052
X051
X05
X049
X048
Y033
X049
X05
X051
X052
X053
X054
X055
X056
X057
X058
X059
X06
X061
X062
X063
X064
X065
X066
X067
T07
X0665Y0155
X0675
X0685
T08
X0285Y0269
Y0278
Y0287
Y0296
Y0305
X0295Y03005
Y02915
Y02825
Y02735
X0305Y0278
Y0287
Y0296
Y0305
Y0269
T09
X0295Y02645
T10
X0675Y0223
T11
X0295Y02368
Y03352
M30
