%FSLAX23Y23*%
%MOIN*%
G70*
G01*
G75*
G04 Layer_Color=8388736*
%ADD10R,0.050X0.300*%
%ADD11C,0.008*%
%ADD12C,0.015*%
%ADD13C,0.030*%
%ADD14C,0.065*%
G04:AMPARAMS|DCode=15|XSize=450mil|YSize=400mil|CornerRadius=20mil|HoleSize=0mil|Usage=FLASHONLY|Rotation=0.000|XOffset=0mil|YOffset=0mil|HoleType=Round|Shape=RoundedRectangle|*
%AMROUNDEDRECTD15*
21,1,0.450,0.360,0,0,0.0*
21,1,0.410,0.400,0,0,0.0*
1,1,0.040,0.205,-0.180*
1,1,0.040,-0.205,-0.180*
1,1,0.040,-0.205,0.180*
1,1,0.040,0.205,0.180*
%
%ADD15ROUNDEDRECTD15*%
%ADD16R,0.063X0.063*%
%ADD17C,0.063*%
%ADD18C,0.059*%
%ADD19R,0.059X0.059*%
%ADD20C,0.066*%
%ADD21C,0.188*%
%ADD22R,0.065X0.065*%
%ADD23O,0.050X0.100*%
%ADD24R,0.050X0.100*%
%ADD25C,0.032*%
%ADD26C,0.050*%
%ADD27C,0.008*%
%ADD28C,0.010*%
%ADD29R,0.058X0.308*%
%ADD30C,0.073*%
G04:AMPARAMS|DCode=31|XSize=458mil|YSize=408mil|CornerRadius=24mil|HoleSize=0mil|Usage=FLASHONLY|Rotation=0.000|XOffset=0mil|YOffset=0mil|HoleType=Round|Shape=RoundedRectangle|*
%AMROUNDEDRECTD31*
21,1,0.458,0.360,0,0,0.0*
21,1,0.410,0.408,0,0,0.0*
1,1,0.048,0.205,-0.180*
1,1,0.048,-0.205,-0.180*
1,1,0.048,-0.205,0.180*
1,1,0.048,0.205,0.180*
%
%ADD31ROUNDEDRECTD31*%
%ADD32R,0.071X0.071*%
%ADD33C,0.071*%
%ADD34C,0.067*%
%ADD35R,0.067X0.067*%
%ADD36C,0.074*%
%ADD37C,0.196*%
%ADD38R,0.073X0.073*%
%ADD39O,0.058X0.108*%
%ADD40R,0.058X0.108*%
%ADD41C,0.040*%
D29*
X6660Y1160D02*
D03*
X6560D02*
D03*
X6460D02*
D03*
X6360D02*
D03*
X6260D02*
D03*
X6160D02*
D03*
X6060D02*
D03*
X5960D02*
D03*
X5860D02*
D03*
X5760D02*
D03*
X5660D02*
D03*
X5560D02*
D03*
X5460D02*
D03*
X5360D02*
D03*
X5260D02*
D03*
X5160D02*
D03*
X5060D02*
D03*
X4960D02*
D03*
X4860D02*
D03*
X4760D02*
D03*
X4660D02*
D03*
X4560D02*
D03*
X4460D02*
D03*
X4360D02*
D03*
X4260D02*
D03*
D30*
X5500Y2450D02*
D03*
X5100D02*
D03*
X5800D02*
D03*
X6200D02*
D03*
X4650Y3300D02*
D03*
X4250D02*
D03*
X3350Y2850D02*
D03*
X3750D02*
D03*
X3350Y2450D02*
D03*
X3750D02*
D03*
Y2350D02*
D03*
X3350D02*
D03*
X3750Y2550D02*
D03*
X3350D02*
D03*
X3750Y2750D02*
D03*
X3350D02*
D03*
X3750Y2650D02*
D03*
X3350D02*
D03*
X3750Y2950D02*
D03*
X3350D02*
D03*
X3750Y3050D02*
D03*
X3350D02*
D03*
X3750Y3150D02*
D03*
X3350D02*
D03*
X3750Y3250D02*
D03*
Y3350D02*
D03*
Y1700D02*
D03*
X3350D02*
D03*
X5050D02*
D03*
X6200Y1600D02*
D03*
X3350Y3350D02*
D03*
Y3250D02*
D03*
X2950Y3005D02*
D03*
Y2915D02*
D03*
Y2825D02*
D03*
Y2735D02*
D03*
X3050Y2960D02*
D03*
Y2870D02*
D03*
Y2780D02*
D03*
X2950Y2645D02*
D03*
X2850Y2690D02*
D03*
Y2780D02*
D03*
Y2870D02*
D03*
Y2960D02*
D03*
Y3050D02*
D03*
X5800Y1600D02*
D03*
X4650Y1700D02*
D03*
X3050Y3050D02*
D03*
X6200Y2350D02*
D03*
X5800D02*
D03*
D31*
X6750Y2230D02*
D03*
D32*
X6650Y1550D02*
D03*
D33*
X6750D02*
D03*
X6850D02*
D03*
D34*
X6429Y1600D02*
D03*
D35*
X6350D02*
D03*
D36*
X5050Y1800D02*
D03*
Y2000D02*
D03*
X6350Y1800D02*
D03*
Y2000D02*
D03*
X3750D02*
D03*
Y1800D02*
D03*
D37*
X2950Y2368D02*
D03*
Y3352D02*
D03*
D38*
X3050Y2690D02*
D03*
D39*
X2700Y1800D02*
D03*
X2800D02*
D03*
X2900D02*
D03*
X3000D02*
D03*
X3100D02*
D03*
X3200D02*
D03*
X3300D02*
D03*
X3400D02*
D03*
X3500D02*
D03*
X3600D02*
D03*
X2700Y2100D02*
D03*
X2800D02*
D03*
X2900D02*
D03*
X3000D02*
D03*
X3100D02*
D03*
X3200D02*
D03*
X3300D02*
D03*
X3400D02*
D03*
X3500D02*
D03*
X4000Y1800D02*
D03*
X4100D02*
D03*
X4200D02*
D03*
X4300D02*
D03*
X4400D02*
D03*
X4500D02*
D03*
X4600D02*
D03*
X4700D02*
D03*
X4900D02*
D03*
X4000Y2100D02*
D03*
X4100D02*
D03*
X4200D02*
D03*
X4300D02*
D03*
X4400D02*
D03*
X4500D02*
D03*
X4600D02*
D03*
X4700D02*
D03*
X4800D02*
D03*
X5300Y1800D02*
D03*
X5400D02*
D03*
X5500D02*
D03*
X5600D02*
D03*
X5700D02*
D03*
X5800D02*
D03*
X5900D02*
D03*
X6000D02*
D03*
X6200D02*
D03*
X5300Y2100D02*
D03*
X5400D02*
D03*
X5500D02*
D03*
X5600D02*
D03*
X5700D02*
D03*
X5800D02*
D03*
X5900D02*
D03*
X6000D02*
D03*
X6100D02*
D03*
Y1800D02*
D03*
X4800D02*
D03*
X6300Y2600D02*
D03*
X6400D02*
D03*
X6700Y3300D02*
D03*
X6600D02*
D03*
X6500D02*
D03*
X6400D02*
D03*
X6300D02*
D03*
X6200D02*
D03*
X6100D02*
D03*
X6000D02*
D03*
X5900D02*
D03*
X5800D02*
D03*
X5700D02*
D03*
X5600D02*
D03*
X5500D02*
D03*
X5400D02*
D03*
X5300D02*
D03*
X5200D02*
D03*
X5100D02*
D03*
X5000D02*
D03*
X4900D02*
D03*
X4800D02*
D03*
X6700Y2600D02*
D03*
X6600D02*
D03*
X6500D02*
D03*
X6200D02*
D03*
X6100D02*
D03*
X6000D02*
D03*
X5900D02*
D03*
X5800D02*
D03*
X5700D02*
D03*
X5600D02*
D03*
X5500D02*
D03*
X5400D02*
D03*
X5300D02*
D03*
X5200D02*
D03*
X5100D02*
D03*
X5000D02*
D03*
X4900D02*
D03*
D40*
X3600Y2100D02*
D03*
X4900D02*
D03*
X6200D02*
D03*
X4800Y2600D02*
D03*
D41*
X3680Y3386D02*
D03*
X3632Y3426D02*
D03*
X6270Y2398D02*
D03*
Y2311D02*
D03*
Y1987D02*
D03*
X4001Y3201D02*
D03*
X3999Y3149D02*
D03*
X2643Y3251D02*
D03*
X6067Y2747D02*
D03*
X5955Y2524D02*
D03*
X6236Y1901D02*
D03*
X6150Y2276D02*
D03*
Y2024D02*
D03*
X6300Y2131D02*
D03*
Y1939D02*
D03*
X5980Y1379D02*
D03*
M02*
